<svg id="Camada_1" data-name="Camada 1" xmlns="http://www.w3.org/2000/svg" viewBox="0 0 75.92 50.8"><defs><style>.cls-1{fill:#d8d8d8;}.cls-2{fill:#dcdcdc;}.cls-3{fill:#00c274;}.cls-4{fill:#dedede;}.cls-5{fill:#d6d4d5;}.cls-6{fill:#d9d9d9;}.cls-7{fill:#d7d7d7;}.cls-8{fill:#dbd552;}.cls-9{fill:#dcd86e;}.cls-10{fill:#d8d255;}.cls-11{fill:#d2cc43;}.cls-12{fill:#cac835;}.cls-13{fill:#d1cc3c;}.cls-14{fill:#b7b11d;}.cls-15{fill:#a39d11;}.cls-16{fill:#c8c32a;}.cls-17{fill:#b5b21c;}.cls-18{fill:#cdc83c;}.cls-19{fill:#b0bd9b;}.cls-20{fill:#dedf6f;}.cls-21{fill:#b7bab4;}.cls-22{fill:#adb1a9;}.cls-23{fill:#aeb3ad;}.cls-24{fill:#e2dd63;}.cls-25{fill:#b2b4ad;}.cls-26{fill:#099846;}.cls-27{fill:#49bb88;}.cls-28{fill:#b9bfb8;}.cls-29{fill:#b6b20f;}.cls-30{fill:#64774e;}.cls-31{fill:#91a39a;}.cls-32{fill:#45cf98;}.cls-33{fill:#bec1bc;}.cls-34{fill:#6bc299;}.cls-35{fill:#57c594;}.cls-36{fill:#a6b3ac;}.cls-37{fill:#afb9b4;}.cls-38{fill:#9baba3;}.cls-39{fill:#b3b3ad;}.cls-40{fill:#a1b0a8;}.cls-41{fill:#a3a49c;}.cls-42{fill:#98a79f;}.cls-43{fill:#a7b6af;}.cls-44{fill:#9ba8a1;}.cls-45{fill:#94a39c;}.cls-46{fill:#a3b0a8;}.cls-47{fill:#889990;}.cls-48{fill:#e2dd62;}.cls-49{fill:#cbc42d;}.cls-50{fill:#fefefe;}.cls-51{fill:#a2b0a9;}.cls-52{fill:#abb9b1;}.cls-53{fill:#8e9d96;}.cls-54{fill:#51e6aa;}.cls-55{fill:#4ee0a3;}.cls-56{fill:#7c8e85;}.cls-57{fill:#556c62;}.cls-58{fill:#e7e377;}.cls-59{fill:#d4cf3f;}.cls-60{fill:#b1ad12;}.cls-61{fill:#e7e28c;}.cls-62{fill:#ebe79f;}</style></defs><path class="cls-1" d="M49.93,23.09c0-.88,0-1.76,0-2.63V10.75a.5.5,0,0,1,.25-.52.62.62,0,0,1,.42-.09c1.06,0,2.11,0,3.17,0l.12,0c.36.32.29.77.3,1.18,0,.87,0,1.73,0,2.6a3.79,3.79,0,0,0,0,.89c0,.19.12.29.31.28.57,0,1.13.08,1.71,0a12,12,0,0,1,1.46,0,8.86,8.86,0,0,0,.9-.07c.18,0,.24-.12.27-.28a3.93,3.93,0,0,0,0-.84c0-1.08,0-2.17,0-3.25a.8.8,0,0,1,.25-.51c.43-.06.85,0,1.28,0,.67,0,1.33,0,2,0a1.14,1.14,0,0,0,.37,0,1.14,1.14,0,0,1,.37,1c0,.89,0,1.8,0,2.69-.12,2.86,0,5.72-.06,8.58a2.65,2.65,0,0,0,0,.56c.11.53-.2.82-.73.82a19.86,19.86,0,0,0-2.78,0,.61.61,0,0,1-.74-.65c0-1.34,0-2.69,0-4a2.09,2.09,0,0,0,0-.25c0-.26-.12-.4-.43-.38a18.36,18.36,0,0,0-2.09.09,2.13,2.13,0,0,1-.7-.08c-.43-.08-.82.18-1.26.11-.17,0-.21.25-.22.43,0,.65.08,1.29.06,1.94,0,.43,0,.87,0,1.31a7.79,7.79,0,0,0,0,1,.54.54,0,0,1-.56.57c-.37,0-.73-.06-1.09,0-.7,0-1.39.06-2.09.09-.29,0-.42-.29-.51-.55a1.14,1.14,0,0,0,.09-.55v-10c0-.11,0-.22,0-.33-.08.07,0,.15,0,.22,0,3.37,0,6.75,0,10.12C50,22.87,50.09,23,49.93,23.09Z"/><path class="cls-2" d="M22.21,37.16a2.83,2.83,0,0,0-.74-2.1,2.56,2.56,0,0,0-.8-.77c-.34-.19-.32-.26-.07-.54a3.61,3.61,0,0,0,.89-1.54,3,3,0,0,0-.1-1.92,3.16,3.16,0,0,0-1.75-1.71A5.79,5.79,0,0,0,17.45,28a10.9,10.9,0,0,1-1.4,0H11.59a5.67,5.67,0,0,1-1.09,0,.43.43,0,0,0-.25.26.77.77,0,0,1,.06.3,20.83,20.83,0,0,1,0,2.09c0,3,0,6.06,0,9.08,0,.54.1.65.64.65h4.19a18.43,18.43,0,0,0,3.71-.19,4.31,4.31,0,0,0,2-.81c-.09.07-.15.12-.13.22A2.22,2.22,0,0,0,22,37.69s0-.13,0-.14C22.3,37.48,22.2,37.3,22.21,37.16ZM18,37.54a2,2,0,0,1-1,.27H14.89c-.2,0-.38.06-.59,0a.47.47,0,0,1-.38-.55,1.58,1.58,0,0,0,0-.65,1.73,1.73,0,0,1,.11-1c0-.11.13-.08.21-.08,1,0,1.92,0,2.88,0a1.9,1.9,0,0,1,1,.3A1,1,0,0,1,18,37.54Zm-.39-6.28a.87.87,0,0,1-.21,1.41c-.62.32-.63.32-1.79.32-.37-.09-.82.1-1.28,0a.44.44,0,0,1-.4-.5,8.2,8.2,0,0,0,0-1.11c0-.35.17-.63.6-.61.62,0,1.25,0,1.87,0A1.86,1.86,0,0,1,17.58,31.26Z"/><path class="cls-2" d="M36.75,22.91c-.26,0-.25-.21-.24-.39a.62.62,0,0,0-.06-.3c-.23-.51-.47-1-.68-1.53-.52-1.26-1.16-2.45-1.66-3.71-.4-1-.85-2-1.28-2.93-.52-1.17-1.08-2.32-1.56-3.51a.66.66,0,0,0-.76-.5c-1,0-2,.05-3,.05a.64.64,0,0,0-.62.45c0,.06,0,.1,0,.15-.53,1.28-1.11,2.55-1.67,3.82-.46,1-.87,2.06-1.38,3,0,0-.09.07-.1.11-.21.46-.41.93-.6,1.39-.4,1-.9,1.86-1.23,2.83a.12.12,0,0,1,0,.14c-.21.43-.4.87-.62,1.29.08.41.37.51.74.51.89,0,1.77,0,2.66,0,.71,0,.69,0,1-.72.2-.45.31-.94.52-1.38s.34-.53.78-.53c1.4,0,2.81-.05,4.22.06.28,0,.55.06.66.39a.35.35,0,0,0,.19.24c.12.05.13.16.16.26q.13.42.3.84c.12.3.24.63.64.62.9,0,1.79,0,2.69,0a1,1,0,0,1,.85.19c.13-.19,0-.44.18-.64A.17.17,0,0,0,36.75,22.91Zm-9.24-5.15c.29-.15.32-.44.42-.7.18-.49.39-1,.59-1.44a.8.8,0,0,0,0-.15.63.63,0,0,0,.14-.24,1.62,1.62,0,0,1,.42-.68c.23,0,.18.22.22.33a28.35,28.35,0,0,0,1.17,2.79.76.76,0,0,1,.05.33.4.4,0,0,1-.42.2H28.6A1.65,1.65,0,0,1,27.47,18,.14.14,0,0,1,27.51,17.76Z"/><path class="cls-3" d="M41.15,13.63,41,13.8a.68.68,0,0,0,0,1c0-.1,0-.27.17-.13a5.09,5.09,0,0,0,2.07.7,10.43,10.43,0,0,1,3.4,1.1,2.91,2.91,0,0,1,.91.8c-.1.18-.19,0-.26,0-.29-.2-.57-.42-.79-.54a3.35,3.35,0,0,1,1.67,2.88c0,.22-.09.49,0,.64a.46.46,0,0,1,.08.43h0a4.22,4.22,0,0,1-1.15,1.92c-.13.14-.35.18-.48.34a5.86,5.86,0,0,1-2,.85c-.47.14-.64.35-.61.83,0,.31,0,.62,0,.93a.41.41,0,0,1-.24.46,2.45,2.45,0,0,1-.93.1h-.84c-.39,0-.57-.19-.56-.58s.07-.73.06-1.09-.1-.49-.49-.53a10.31,10.31,0,0,1-2.79-.6,5.28,5.28,0,0,1-1.19-.59c-.33-.26-.37-.39-.23-.77.09-.22.22-.42.3-.64h0a3.34,3.34,0,0,0,.45-1c.31-.66.27-.76,1-.4a10.36,10.36,0,0,0,3.26.95,4.6,4.6,0,0,0,1.61-.08c.2-.05.41,0,.59,0a.74.74,0,0,0,.6-.61s0-.09,0-.14,0,.08-.11.08-.06-.34-.13-.51a1.41,1.41,0,0,0-1-.75c-.68-.21-1.38-.37-2.08-.53a8,8,0,0,1-2.85-1.08,1.32,1.32,0,0,0-.48-.22,2.69,2.69,0,0,1-1-1.71,4,4,0,0,1,1.34-4,5,5,0,0,1,1.42-.83c.44-.11.85-.3,1.3-.38a.39.39,0,0,0,.33-.25h0a2.29,2.29,0,0,0,.08-1c0-.28-.1-.6.23-.78h0a3.78,3.78,0,0,1,1.06-.06h.85c.3,0,.39.08.41.38a7.83,7.83,0,0,1,0,1c-.06.54.13.74.66.79a7.74,7.74,0,0,1,2.4.67c.1,0,.2.11.3.15a.64.64,0,0,1,.34.86,4.59,4.59,0,0,1-.24.5h0A11,11,0,0,0,47,13.7a.37.37,0,0,1-.33.27,1.2,1.2,0,0,1-.75-.15A7.58,7.58,0,0,0,43.07,13,2.26,2.26,0,0,0,41.15,13.63Z"/><path class="cls-4" d="M8.43,15.5a6.58,6.58,0,0,1,1.42-3A7.31,7.31,0,0,1,13,10.26a6.61,6.61,0,0,1,2.16-.4,9.21,9.21,0,0,1,2.82.23,7.64,7.64,0,0,1,3.08,1.69,3.11,3.11,0,0,1,.33.29.75.75,0,0,1-.14,1c-.56.6-1.25,1-1.8,1.67-.1.11-.21,0-.28,0-.34.21-.49-.07-.65-.26a3.61,3.61,0,0,0-4.09-.78,3.1,3.1,0,0,0-1.79,2.22,4.23,4.23,0,0,0,.07,2.34,3,3,0,0,0,2,2.06,3.75,3.75,0,0,0,2.62-.1,3.35,3.35,0,0,0,1.38-1c.09-.11.08-.09.22,0s.22.11.27,0,.13-.12.21,0a14.33,14.33,0,0,0,1.81,1.67.78.78,0,0,1,.25.58.57.57,0,0,1-.22.54,7.33,7.33,0,0,1-4.69,2.14A8.08,8.08,0,0,1,11.7,23a7.11,7.11,0,0,1-2.57-2.57,6.05,6.05,0,0,1-.77-2.57c.07-.19,0-.37,0-.55a8,8,0,0,1,.09-1.54C8.47,15.7,8.53,15.59,8.43,15.5Z"/><path class="cls-5" d="M50.3,40.56c-.22-.06-.39-.17-.37-.44.08-.1,0-.22,0-.33V28.87c0-.11,0-.23,0-.33a.56.56,0,0,1,.6-.57H53.1a1.54,1.54,0,0,1,.3,0,.48.48,0,0,1,.42.54c0,.89,0,1.78,0,2.66a.81.81,0,0,1-.14.62,1,1,0,0,0,0,.81c.1.28.23,0,.34,0,.53-.49,1-1.08,1.47-1.59.26-.25.49-.53.74-.79.07-.07.17-.13.17-.25.56-.61,1.08-1.25,1.67-1.83.06-.06.12-.13.22-.11h2.88a2.68,2.68,0,0,0,.8,0c.07,0,.19-.06.21.06s.13.29,0,.41A15.21,15.21,0,0,0,61,29.76c-.64.6-1.22,1.28-1.81,1.93s-1,1.05-1.45,1.55a.48.48,0,0,0-.09.66,9.36,9.36,0,0,0,.72.94c.56.76,1.16,1.49,1.72,2.25.71,1,1.46,1.9,2.21,2.83,0,0,.14.1.07.18s-.1,0-.17,0,.18.16.15.29a1.06,1.06,0,0,1-.56,0,8.05,8.05,0,0,0-1.3,0c-.64,0-1.27,0-1.9,0a.57.57,0,0,1-.43-.28c-.58-.76-1.23-1.44-1.79-2.21a8.31,8.31,0,0,1-.84-1c-.06-.12-.14,0-.21-.06a4.35,4.35,0,0,1-.38-.36c-.12-.14-.2-.11-.3,0a10.29,10.29,0,0,1-.66.82.72.72,0,0,0-.16.5c0,.8,0,1.6,0,2.4,0,.24-.08.35-.31.37l-.21,0H50.48c.07-.21.25-.15.4-.15h-.2C50.53,40.41,50.38,40.4,50.3,40.56Z"/><path class="cls-6" d="M36.58,39.91c-.32-.44-.42-1-.7-1.46s-.38-.74-.56-1.1a9.45,9.45,0,0,1-.52-1.17c0-.11-.25-.12-.15-.28s0-.25-.06-.38a4.71,4.71,0,0,1-.49-1.07c-.06-.42-.39-.71-.51-1.13-.18-.62-.54-1.2-.78-1.81-.37-.94-.9-1.8-1.2-2.76-.22-.67-.41-.79-1.12-.78s-1.63,0-2.44,0a.67.67,0,0,0-.69.43c-.26.61-.5,1.22-.76,1.83a.54.54,0,0,1-.09.35c-.51,1.13-1,2.27-1.5,3.4a11.91,11.91,0,0,1-.68,1.45.48.48,0,0,0-.09.11c-.37.84-.75,1.67-1.1,2.52a6.36,6.36,0,0,0-.86,2.39c.23.08.45-.05.68,0,.83,0,1.66,0,2.49,0a1.19,1.19,0,0,1,.46,0,.61.61,0,0,0,.44-.55,4.77,4.77,0,0,1,.69-1.7c.07-.24.28-.16.42-.16h3.95a.61.61,0,0,1,.71.51c.15.46.33.9.51,1.34s.23.44.45.5l-.2,0a.14.14,0,0,0-.13.08.68.68,0,0,0,.5.13c1,0,1.94,0,2.91,0,.18,0,.54.15.35-.31C36.47,40.14,36.69,40.06,36.58,39.91Zm-5.94-4.37c0,.08-.09.09-.14.06-.26-.19-.56-.09-.84-.1a10.19,10.19,0,0,1-1.24-.07.35.35,0,0,1-.28-.5c.32-.63.49-1.31.78-2a1.81,1.81,0,0,0,.26-1c0-.06.06-.08.11-.09s.13.22.19.32a.78.78,0,0,0,.25.43c.06.13.13.25.2.37.23.63.46,1.27.71,1.89C30.73,35.15,30.58,35.34,30.64,35.54Z"/><path class="cls-7" d="M37.44,37.75a2.93,2.93,0,0,1-.6-1.21,5.63,5.63,0,0,1-.39-2.3A7.13,7.13,0,0,1,37,31.71a6.32,6.32,0,0,1,3.86-3.54A7.43,7.43,0,0,1,45,28a6.61,6.61,0,0,1,2.07.76A8.78,8.78,0,0,1,48.7,30a.2.2,0,0,1,0,.19,1.48,1.48,0,0,1-.64.85c-.48.4-1,.81-1.41,1.22a.38.38,0,0,1-.61,0c.08-.14.2-.07.25-.08a3.46,3.46,0,0,0-2.41-1.3,3.62,3.62,0,0,0-2.71.88s.07,0,.05,0,0,0,0,0a.14.14,0,0,1,.17,0,3.23,3.23,0,0,0-.8,1.14,2.4,2.4,0,0,0-.2.83,12.68,12.68,0,0,0,.09,1.74A2.36,2.36,0,0,0,41.69,37a3.23,3.23,0,0,0,3.41.16,2,2,0,0,0,.71-.54c.28-.34.38-.35.8-.22.21.07.37.11.43.35s.26,0,.37.18a4.06,4.06,0,0,0,.77.72l.57.79c.06.14-.07.17-.14.23a.5.5,0,0,0-.44.2A5.45,5.45,0,0,1,46.44,40a7.55,7.55,0,0,1-3.17.6,7.42,7.42,0,0,1-4.5-1.56A8,8,0,0,1,37.44,37.75Z"/><path class="cls-8" d="M3.41,7.78l-.19.38a3.22,3.22,0,0,1-.28.75,10.54,10.54,0,0,0-.38,1.44,10,10,0,0,0-.25,2.25v8.8a1.55,1.55,0,0,0-.07.52c0,.87-.05,1.73-.1,2.59,0,.14,0,.29,0,.43,0,1.37,0,2.74,0,4.11s0,2.83-.09,4.25,0,2.55,0,3.82a12.2,12.2,0,0,0,.13,3,11.94,11.94,0,0,0,1,3,11.45,11.45,0,0,0,2.34,3,6.63,6.63,0,0,0,1.9,1.26.4.4,0,0,0,.15,0,12.28,12.28,0,0,0,1.73.7,9.29,9.29,0,0,0,2.2.42c1,.11,2,.06,3,.13a10.92,10.92,0,0,0,1.8.14c.61,0,1.21.15,1.81.14s1.43.17,2.15.1a2.54,2.54,0,0,1,.9.15c.06,0,.16,0,.16.12s-.09.1-.15.12a2.78,2.78,0,0,1-1.14.17,2.89,2.89,0,0,0-.72,0,8.93,8.93,0,0,1-1.27.08c-1.34,0-2.67.11-4,.14-.9,0-1.8.07-2.69,0A8.55,8.55,0,0,1,9,49.33c-.49-.17-1-.28-1.48-.48a8.49,8.49,0,0,1-1.16-.6L4.69,47.19A12.83,12.83,0,0,1,2.87,45.4a9.15,9.15,0,0,1-1.64-2.72,10.4,10.4,0,0,1-.88-3.79c0-1.15,0-2.31-.06-3.47,0-.85,0-1.69,0-2.53-.06-1.71,0-3.41,0-5.11-.08-3.35,0-6.7-.06-10.06,0-1.36-.11-2.72-.1-4.08a.3.3,0,0,0,0-.16c0-.35,0-.71,0-1.06a13.22,13.22,0,0,1,.23-2.26A12.45,12.45,0,0,1,1.44,6.71l.09-.12c.13,0,.18-.27.33-.16s.06.29,0,.42A9.16,9.16,0,0,0,1,9.24a11.23,11.23,0,0,0-.39,2.33c0,.8,0,1.6,0,2.4,0,3.29,0,6.58,0,9.87,0,2.38,0,4.75.05,7.13a4.1,4.1,0,0,1,0,.5,8.57,8.57,0,0,0,0,2c0,1,0,1.92,0,2.88,0,.64,0,1.29,0,1.93a4,4,0,0,0,.07,1.15A4.62,4.62,0,0,0,.8,40a7.13,7.13,0,0,0,.44,1.75,8.45,8.45,0,0,0,1.47,2.74.45.45,0,0,0,.18.18c-.28-.66-.52-1.33-.86-2a3.5,3.5,0,0,1-.37-1.19c-.07-.54-.27-1-.32-1.59a12.74,12.74,0,0,1,0-2.62c0-.23-.06-.45-.05-.68,0-.77,0-1.55,0-2.32a4.32,4.32,0,0,1,.11-.87,1.3,1.3,0,0,0,0-.52.52.52,0,0,1,.13-.49.56.56,0,0,0,.15-.41c.09-2.38.3-4.77.18-7.16a19.88,19.88,0,0,1,0-2.56c.14-1.86.06-3.71.14-5.57,0-.15,0-.29,0-.44.12-1.33,0-2.67.06-4a4.42,4.42,0,0,1,0-1c.17-.25,0-.5,0-.75a.6.6,0,0,1,0-.19.8.8,0,0,1,.11-.25,2.06,2.06,0,0,0,.31-1l0-.09a3.63,3.63,0,0,1,.28-.78c.06-.08,0-.16,0-.24a.4.4,0,0,1,0-.15A18.27,18.27,0,0,1,4,5.94a2.6,2.6,0,0,1,.3-.36A20.48,20.48,0,0,1,5.9,4,7.49,7.49,0,0,1,8,2.65,13.75,13.75,0,0,1,9.86,2a11.14,11.14,0,0,1,2.57-.3c1.72,0,3.44,0,5.17,0,.7,0,1.39,0,2.09,0s1.18,0,1.77,0c.25,0,.49.07.75,0,1.75-.12,3.5,0,5.25-.07,2.3-.07,4.6,0,6.89-.06.6,0,1.19,0,1.78,0,1.47-.05,2.94,0,4.41-.07.74,0,1.48,0,2.22,0,1.71-.05,3.42,0,5.13,0,2.55-.09,5.09,0,7.64-.06a3.46,3.46,0,0,0,.56,0,.44.44,0,0,1,.29.16c.08.06.15.14.25.08a.28.28,0,0,0,.17-.27V1.06a.92.92,0,0,1,0-.29c.06-.1.11-.22.26-.22s0,.22.09.32a1.68,1.68,0,0,1,0,.5c-.25.48-.36.54-.89.5h-.4c-1.56,0-3.12,0-4.67,0-1.83,0-3.67-.1-5.5,0-2.17.09-4.34,0-6.51.07-.73,0-1.46-.06-2.19,0a14.43,14.43,0,0,1-1.47,0C33.22,2,30.92,2,28.61,2c-.94,0-1.88,0-2.82,0C25,2,24.23,2,23.45,2a14.65,14.65,0,0,0-1.75.09c-.3,0-.6-.07-.9,0-.91.06-1.81,0-2.72,0-.45,0-.92,0-1.38,0a7.73,7.73,0,0,0-1,.06c-.34,0-.7-.06-1.05,0-.5,0-1,0-1.5,0-.67,0-1.33.07-2,.11A3.4,3.4,0,0,0,10,2.41a2.57,2.57,0,0,1-.54.16A7.2,7.2,0,0,0,7.05,3.64,10.22,10.22,0,0,0,5.49,4.78a10.64,10.64,0,0,0-1,1.11.37.37,0,0,0-.11.28.29.29,0,0,1-.08.22v0a.28.28,0,0,1-.16.14,1,1,0,0,0-.43.69.23.23,0,0,1,0,.16h0s-.07.09-.13.1-.23,0-.1.16A.09.09,0,0,1,3.41,7.78Z"/><path class="cls-9" d="M69.17,10.92,71,7.14c.12-.26.22-.53.33-.79,0-.07,0-.13.11-.13a.16.16,0,0,1,.08,0c0,.28.5.1.44.46a.37.37,0,0,0,0,.21,15,15,0,0,1,1.39,2.78c.51,1,1,2.07,1.45,3.11a18.23,18.23,0,0,0,.82,1.73c0,.08.12.2,0,.24s-.18-.08-.22-.18c-.24-.5-.44-1-.69-1.51-.57-1.16-1.06-2.36-1.65-3.52-.34-.66-.62-1.36-.94-2a8.52,8.52,0,0,0,.55,1.37c.4.78.72,1.59,1.09,2.38a.8.8,0,0,0,.1.23,3.26,3.26,0,0,1,.46,1,20.25,20.25,0,0,0,1,2.09c.06.11.22.21.1.36s-.25,0-.36,0a.53.53,0,0,0-.12,0,.52.52,0,0,1-.42-.2,1.13,1.13,0,0,0-.68-.29,4.84,4.84,0,0,0-1.52,0c-.48.1-.53.19-.27.59a1,1,0,0,1,.15.53c0,.91,0,1.81,0,2.72,0,3.54,0,7.08,0,10.62-.06,3.1,0,6.2-.06,9.3a5.24,5.24,0,0,1-.2,1.67c-.06.16-.1.42-.29.38s-.18-.28-.16-.45a23.26,23.26,0,0,0,0-3c-.09-1.91,0-3.82-.06-5.72-.11-3.6,0-7.19-.05-10.78,0-1.19,0-2.37-.08-3.56,0-.55,0-1.1,0-1.65a.48.48,0,0,0-.19-.43,1.26,1.26,0,0,0-.82-.34,3.83,3.83,0,0,1-.9-.13c-.42-.1-.52-.27-.44-.75a3.9,3.9,0,0,1-1,1.38c-.07.08-.15.16-.27.08s-.07-.16-.05-.25a5,5,0,0,1,.6-1.45c.09-.13.13-.28.21-.42.3-.59.61-1.18.9-1.77a11.72,11.72,0,0,1,.68-1.32c.43-.67.54-1.47.87-1.92-.39.88-1,1.92-1.46,3C69.45,10.84,69.42,11.08,69.17,10.92Z"/><path class="cls-10" d="M14.38,48.66c-.85,0-1.71,0-2.56-.08a12.31,12.31,0,0,1-2-.26c-.54-.12-1.05-.37-1.58-.53a3.41,3.41,0,0,1-.76-.39,4.33,4.33,0,0,1-1.29-.77A10.67,10.67,0,0,1,4.48,45c-.19-.24-.36-.51-.54-.76,0-.07-.11-.16,0-.26.43.44.75,1,1.17,1.41A9.53,9.53,0,0,0,8.22,47.6a8.24,8.24,0,0,0,2.31.71c.52.07,1.05.14,1.59.16,4.35.11,8.7.05,13.06.06h3.29c9.48,0,19,0,28.44,0,1.27,0,2.55,0,3.82-.06a9.55,9.55,0,0,0,4.05-1c.2-.11.41-.19.62-.29.09.15,0,.22-.12.27a8.26,8.26,0,0,1-2.23.89s0,0,0,0a3,3,0,0,0,1.65-.53c.2-.17.47-.15.69-.27a11.37,11.37,0,0,0,1.41-.87c.49-.36.93-.79,1.4-1.18.27-.24.38-.57.64-.8a2.9,2.9,0,0,0,.63-.92.63.63,0,0,1,.16-.23c.07-.06.14-.1.23,0a.18.18,0,0,1,.08.24,1.88,1.88,0,0,1-.28.52,1.54,1.54,0,0,0-.23.44,2.31,2.31,0,0,1-.53.84,9.45,9.45,0,0,1-.88.91c-.21.24-.39.52-.63.75a9.15,9.15,0,0,1-2.29,1.5c-.38.2-.78.33-1.17.51a11.05,11.05,0,0,1-2.78.55c-1.66.12-3.32.07-5,0s-3.28-.08-4.91-.11c-.9,0-1.8-.15-2.69-.1-1.16.06-2.31-.1-3.47-.14a.49.49,0,0,1-.21,0c-.06,0-.12-.07-.13-.13s.07-.1.13-.12A1,1,0,0,1,45.1,49c.92,0,1.85-.16,2.78-.17,2.07,0,4.15-.14,6.22-.18h.06c-1.77.08-3.58.07-5.39.07-1.06,0-2.13,0-3.19,0H40.44c-3.7,0-7.4,0-11.1,0H26c-.73,0-1.47,0-2.2,0-1,0-1.95,0-2.93,0H18.38a3.75,3.75,0,0,0-.58,0c-1.11,0-2.22,0-3.33-.08Z"/><path class="cls-11" d="M64,49a13.05,13.05,0,0,0,1.66-.76A7.58,7.58,0,0,0,67,47.36c.29-.28.72-.47.83-1,.05-.22.39-.32.58-.5s.37-.25.18-.56c.16.1.18.11.3,0,.43-.44.49-1.08.89-1.52.07-.08.17-.24,0-.32s-.19.07-.24.18a9.59,9.59,0,0,1-.85,1.23,10.39,10.39,0,0,1-1.38,1.43,4.05,4.05,0,0,1-.78.58,4.94,4.94,0,0,1-1.39.75c-.39.08-.64.38-1,.5a7.53,7.53,0,0,1-1.25.18c.51-.18,1-.35,1.52-.55.31-.13.61-.31.91-.47a.16.16,0,0,0,.08-.16h0a2.32,2.32,0,0,0,.85-.57c.2-.27.55-.38.77-.63l.1,0a2.36,2.36,0,0,0,.75-.54,6.12,6.12,0,0,0,.68-.78,9.61,9.61,0,0,0,1.54-3c.09-.43.27-.84.4-1.26a5.32,5.32,0,0,0,.19-1.73c0-1.3,0-2.61,0-3.91,0-1,0-2,0-3,0-.7,0-1.41,0-2.12,0-.44,0-.88,0-1.31,0-.15,0-.33.19-.38A9.27,9.27,0,0,1,71,29.14s0,0,0,0c0-1.05.07-2.09.08-3.13,0-.61,0-1.23,0-1.84A9.7,9.7,0,0,1,71,22.48c-.12,1.66,0,3.4-.07,5.14a.44.44,0,0,1-.08.33c-.21,0-.16-.15-.17-.25a7.16,7.16,0,0,1,0-1.31c0-1.46,0-2.92,0-4.38,0-.37.07-.74.07-1.12,0-.67-.11-1.33-.09-2,0-.92-.11-1.85-.06-2.77a2.84,2.84,0,0,1,.07-1c.06-.15-.06-.27-.23-.26a8.1,8.1,0,0,0-2.45.16,1.58,1.58,0,0,0-.46.25l-.1,0c-.15-.11-.28-.23-.23-.45a.61.61,0,0,1,.2-.28c.18-.11.21-.33.3-.5s0-.19.07-.25.18-.25.25-.38c.41-.73.72-1.51,1.12-2.25a.65.65,0,0,0,.06-.24.14.14,0,0,1,0-.06c.13.07.17,0,.21-.11.27-.56.53-1.12.81-1.67s.42-.88.66-1.31c.1-.16,0-.44.3-.5A.5.5,0,0,1,71,7.8c-.28.44-.35,1-.61,1.41a4.43,4.43,0,0,1-.61,1,.36.36,0,0,0-.12.18A4.48,4.48,0,0,1,69,12a4.57,4.57,0,0,1-.75,1.41c-.12.11-.11.28-.14.43s0,.2-.11.25c-.25.17-.11.48-.25.69,0,.06.06.15.16.06.26-.14.42-.44.69-.52s.54.08.83.05a4.79,4.79,0,0,1,1.3.17.74.74,0,0,1,.66.82c0,.7,0,1.41,0,2.12,0,1.19.12,2.37.08,3.56,0,.91,0,1.83,0,2.75a13.6,13.6,0,0,0,0,2.55c0,.25,0,.5,0,.75,0,1.52,0,3,0,4.56s0,2.91,0,4.36c0,.9,0,1.81,0,2.72a12.5,12.5,0,0,1-.67,3.88.74.74,0,0,0,.3-.33c.3-.48.42-1,.7-1.53.15.07.18.1.12.28a5.45,5.45,0,0,1-.4,1.11,2,2,0,0,0-.27.76c0,.28-.29.44-.41.68a6.1,6.1,0,0,1-.8,1,4.16,4.16,0,0,1-.89,1l-.05,0c-.08.52-.63.57-.91.9s-.64.58-.93.91c-.12.13-.31.18-.41.33a.47.47,0,0,1-.1.1,7.75,7.75,0,0,0-1.74,1,.81.81,0,0,1-.31.15,2.66,2.66,0,0,0-.49.1C64.19,49.1,64.07,49.14,64,49Z"/><path class="cls-12" d="M4.34,6.22c-.22-.13,0-.26,0-.35A11.65,11.65,0,0,1,6.26,4,7.41,7.41,0,0,1,7,3.59l.73-.46a11.17,11.17,0,0,1,2-.76A9.87,9.87,0,0,1,12.4,2,8.55,8.55,0,0,1,14,2a5.36,5.36,0,0,0,1,0,.83.83,0,0,1,.22,0c.69.12,1.39-.09,2.08,0s1.49-.06,2.24,0c.34,0,.72-.07,1.08,0a14,14,0,0,0,2,0c.74-.05,1.47-.05,2.2,0s1.76,0,2.64,0c1.34,0,2.68,0,4,0,.76,0,1.53,0,2.29,0,.35,0,.7,0,1.05-.06.66,0,1.31.09,2,.06,2-.1,4,0,6-.08.16,0,.32,0,.47,0,1.49,0,3-.11,4.47-.07.73,0,1.47,0,2.2,0,1.18.06,2.36,0,3.54,0h2.63a1.61,1.61,0,0,1,.31,0A.48.48,0,0,0,57,1.47a.21.21,0,0,1,.12-.14.76.76,0,0,1-.56,1l-3.88,0H12.61a12.92,12.92,0,0,0-3.38.5c-.4.18-.85.27-1.24.48-.08.05-.14.16-.25.15a4.59,4.59,0,0,1-.5.24h0c-.2.18-.47.26-.68.43h0a5.79,5.79,0,0,1-.61.5h0c-.22.12-.34.35-.55.49l-.2.2A8.37,8.37,0,0,1,4.34,6.22Z"/><path class="cls-13" d="M66.85,47.78l.06-.07c.63-.42,1.12-1,1.76-1.45.09-.06.19-.25.3,0a.72.72,0,0,1-.3.56,1.62,1.62,0,0,1-.69.52.67.67,0,0,0-.21.13,10.74,10.74,0,0,1-3.93,2.06A13.17,13.17,0,0,1,60,50c-2.39,0-4.79,0-7.18,0-1.41,0-2.81-.15-4.22-.11-.85,0-1.71,0-2.56,0s-1.41,0-2.11,0c-1.07,0-2.15,0-3.22,0-1.71,0-3.42,0-5.13,0-1.5,0-3,0-4.5,0-.68,0-1.36.07-2,0-1.56-.09-3.11,0-4.67,0a13,13,0,0,0-1.87.11,3.44,3.44,0,0,1-.46,0,14.06,14.06,0,0,0-1.72.05c-1.12,0-2.25,0-3.38.06a14.13,14.13,0,0,0-1.83.1,2.13,2.13,0,0,1-.87,0,.68.68,0,0,0-.4,0,1.79,1.79,0,0,1-.56,0c-.53-.07-1.06,0-1.59,0s-1.37-.1-2-.2a1.59,1.59,0,0,1-.33-.1A15.71,15.71,0,0,0,7.7,49.3a12.35,12.35,0,0,1-1.35-.7c-.35-.25-.76-.41-1.12-.65-.19-.12-.34-.3-.52-.44a13.32,13.32,0,0,1-2.2-2.24,10.76,10.76,0,0,1-1-1.57,15.25,15.25,0,0,1-1-2.6l0,0s0,0,0,0,0-.21-.14-.27l0-.14c-.06-.25.06-.51-.1-.74l0-.15c0-.54,0-1.1-.05-1.64a2.43,2.43,0,0,0,0-.38q0-12,0-24c0-.09,0-.19.05-.26a.83.83,0,0,1,0,.15c0,.79,0,1.57.06,2.36.12,3.25,0,6.5.08,9.75.05,2.09,0,4.19.06,6.28,0,.55,0,1.1,0,1.65,0,1.51,0,3,.07,4.53a8.94,8.94,0,0,0,.3,2.68c.15.43.33.86.44,1.29A10.33,10.33,0,0,0,2,44a8,8,0,0,0,1.66,2.14,2.8,2.8,0,0,1,.59.65c.1.2.4.13.46.37.69.5,1.41,1,2.14,1.38a13.27,13.27,0,0,0,2.62.95,6.24,6.24,0,0,0,1.68.31c1.69,0,3.37,0,5.06-.09,1.3-.06,2.61-.08,3.91-.09.25,0,.5,0,.75,0,1-.07,2.09,0,3.12-.16s2,0,3,0c1.17,0,2.35.07,3.53,0L35,49.36c1.35,0,2.7,0,4,0s2.71,0,4.06,0c1.52,0,3,.09,4.54.13.82,0,1.63,0,2.45,0s1.91,0,2.87.1c.35,0,.71,0,1.06,0,1.23,0,2.47,0,3.7,0,.94,0,1.88,0,2.81,0a10.47,10.47,0,0,0,3.14-.5c.37-.13.77-.17,1.14-.3l.25-.13C65.67,48.44,66.26,48.11,66.85,47.78Z"/><path class="cls-14" d="M11,50.66a4.92,4.92,0,0,1-1.47-.24,10.07,10.07,0,0,1-2.84-1.07,15.21,15.21,0,0,1-2-1.3,11,11,0,0,1-1.8-1.8A.47.47,0,0,1,2.71,46c0-.15-.3-.18-.16-.39a.18.18,0,0,1,.1,0,8.41,8.41,0,0,1,1,1,10.69,10.69,0,0,0,1.49,1.29,12.3,12.3,0,0,0,2.6,1.46,13,13,0,0,0,3.14.76,17.39,17.39,0,0,0,3.14.15c1.31-.05,2.61,0,3.91-.06,1.67-.06,3.35,0,5,0,.43,0,.85-.08,1.28-.07,2.31.08,4.61,0,6.92,0a24.71,24.71,0,0,0,2.72,0,7.34,7.34,0,0,1,.93,0c.89,0,1.77,0,2.66,0a17.2,17.2,0,0,0,1.9,0,36.84,36.84,0,0,1,4.07,0c2.62,0,5.24,0,7.86.06s5,0,7.54,0c.93,0,1.85,0,2.78-.06.41,0,.82-.13,1.23-.18a9.93,9.93,0,0,0,2-.57,8.32,8.32,0,0,0,2.1-1.07c.35-.27.74-.47,1.09-.73s.54-.48.84-.69.58-.78,1-1c.18,0,.12.14,0,.21a3,3,0,0,1-.37.42,6.22,6.22,0,0,1-.91.94,7.86,7.86,0,0,1-1.12.9l-.06.06a2,2,0,0,0-.55.35,13.39,13.39,0,0,1-2.8,1.23,9.56,9.56,0,0,1-2.76.52c-5.22.14-10.45,0-15.67,0-5.78,0-11.57,0-17.35,0-1.74,0-3.49,0-5.23.06a16.24,16.24,0,0,0-2,0,5.8,5.8,0,0,1-.93,0c-.79,0-1.57.1-2.35.06s-1.61,0-2.41,0a15.06,15.06,0,0,0-1.9,0,4.79,4.79,0,0,1-1.07,0c-.68-.11-1.37,0-2.05-.15a14.43,14.43,0,0,1-1.61-.36c-.45-.12-.87-.31-1.2-.43a9.1,9.1,0,0,1,.9.34,17.22,17.22,0,0,0,2.21.51C10.85,50.52,11,50.51,11,50.66Z"/><path class="cls-15" d="M11,50.66a9,9,0,0,0-1.17-.24,11.84,11.84,0,0,1-2.58-.92,1.42,1.42,0,0,1,.62.15,8.86,8.86,0,0,1,.87.29,8,8,0,0,0,1.42.35,2.54,2.54,0,0,0,.95.12c.56,0,1.1.08,1.65.11s1.28,0,1.92,0a10.92,10.92,0,0,1,1.4.05c.54,0,1.07,0,1.61,0,.73.06,1.46-.09,2.19-.05.9,0,1.8,0,2.7,0,1.17,0,2.34,0,3.5,0,.36,0,.72,0,1.08,0,5.51-.13,11,0,16.54-.08a5.32,5.32,0,0,0,1.32,0,2.94,2.94,0,0,1,.65,0c4.9,0,9.8,0,14.69,0a11.58,11.58,0,0,0,3.35-.46,19.75,19.75,0,0,0,3-1.16c.28-.14.49-.43.84-.43,0,0-.07.11-.14.13a2.17,2.17,0,0,1-.55.36,11.53,11.53,0,0,1-4.92,1.82h-.32c-.46,0-.93.08-1.4.08H12.66c-.53,0-1.06-.06-1.59-.08Z"/><path class="cls-16" d="M70,45.83c-.19.23-.5.34-.61.67s-.32.28-.48.42a9.06,9.06,0,0,1-1.62,1.2c-.36.19-.65.48-1,.66s-1,.43-1.53.65c-.35.14-.71.23-1.06.36a8,8,0,0,1-1.1.23,14,14,0,0,1-2.42.18c-.38,0-.78,0-1.17,0-2.27,0-4.54.05-6.8,0s-4.68,0-7-.06c-1.58,0-3.16,0-4.73-.07-.53,0-1,.13-1.58.09-.9-.07-1.8,0-2.7-.05-.4,0-.83.06-1.24,0-.75,0-1.49,0-2.24,0H27.09a10.07,10.07,0,0,0-1.34.05,11.82,11.82,0,0,1-1.33,0c-1.33.06-2.65,0-4,.07-.38,0-.76,0-1.14,0-1.31.07-2.63,0-3.94.06-.94,0-1.89.09-2.83.05a22.3,22.3,0,0,1-3-.38,19.88,19.88,0,0,1-2.15-.68A3.52,3.52,0,0,1,6.76,49a18.55,18.55,0,0,1-2-1.24,15.47,15.47,0,0,1-2-1.94l-.24-.21s0-.1-.09-.15.05.11.09.16.21.2.18.37A5.07,5.07,0,0,1,1.65,44.4a1,1,0,0,0-.18-.27c-.09-.15-.1-.35-.22-.48-.13-.4-.33-.76-.45-1.15s-.28-.87-.38-1.32a.15.15,0,0,1,0-.11.34.34,0,0,1,0-.1s0,0,.05,0c0,.29.21.54.28.81A9.62,9.62,0,0,0,2,44.33a13.2,13.2,0,0,0,1,1.31,16.1,16.1,0,0,0,1.82,1.78,6.2,6.2,0,0,0,.7.54c.44.3.95.49,1.36.83.23.2.6.16.81.43l1.85.56a7.64,7.64,0,0,0,1.66.24,18.79,18.79,0,0,0,2.25.07c.55,0,1.1,0,1.64,0,2-.17,4.06-.06,6.09-.16s3.95-.13,5.93-.11c.94,0,1.88,0,2.82,0l3.09,0c.85,0,1.69,0,2.53,0s1.92,0,2.88,0c1.57,0,3.14,0,4.71,0,.73,0,1.47,0,2.21,0,.49,0,1,0,1.47.06,1,0,2.08,0,3.13,0,.6,0,1.21,0,1.81,0,3.18.14,6.37.06,9.55,0a9.3,9.3,0,0,0,3.19-.64,12.15,12.15,0,0,0,3.38-1.87,6.33,6.33,0,0,0,.7-.49,9.58,9.58,0,0,0,.76-.8.53.53,0,0,1,.11-.15,22.27,22.27,0,0,0,1.43-1.78A1.69,1.69,0,0,0,71,43.9c.05-.11.11-.23.27-.22s.07.14,0,.22a10.21,10.21,0,0,1-1.13,1.84C70.12,45.8,70.07,45.87,70,45.83Z"/><path class="cls-17" d="M70.8,28a1,1,0,0,0-.06.65c.05.74,0,1.48,0,2.22,0,1.08,0,2.16,0,3.24,0,1.47,0,2.94,0,4.42a9,9,0,0,1-.58,3.11A7.66,7.66,0,0,1,69.65,43a4.18,4.18,0,0,1-.78,1.21c-.1.09,0,.25-.12.34-.47.37-.72,1-1.26,1.25a1.24,1.24,0,0,0-.22.18c-.08.07-.13,0-.17,0A11.13,11.13,0,0,0,68,45c.26-.34.52-.67.75-1a10.52,10.52,0,0,0,1.34-3.14,14.84,14.84,0,0,0,.25-2.19,1.92,1.92,0,0,0,0-.41c0-1.29,0-2.58,0-3.88q0-6.2,0-12.38c0-1.61,0-3.22,0-4.82,0-.42,0-.84,0-1.25a.38.38,0,0,0-.1-.29l-.07-.09a.17.17,0,0,1,.07-.15c.09-.07.15-.16.1-.27s-.16-.09-.25-.09a7.92,7.92,0,0,0-1.81.16,8.9,8.9,0,0,1-.92.11,1.34,1.34,0,0,1,1.1-.49,16.83,16.83,0,0,1,1.88,0c.34,0,.44.16.28.46a.67.67,0,0,0,0,.39c0,.73,0,1.45,0,2.18,0,1,.15,1.94.11,2.91-.06,1.29,0,2.59-.07,3.89,0,.8,0,1.62,0,2.42a2.14,2.14,0,0,0,.07.91Z"/><path class="cls-18" d="M3.91,44a3.27,3.27,0,0,0,.56.89,11.31,11.31,0,0,0,2,1.92,9.63,9.63,0,0,0,1,.63c-.23.14-.39-.09-.51-.17a6.55,6.55,0,0,1-.78-.44,13.13,13.13,0,0,1-1.41-1.28c-.39-.45-.77-.91-1.15-1.37,0,0,0,0-.06-.07a14.89,14.89,0,0,1-1.18-2.6,5.82,5.82,0,0,0-.3-1.1,3.37,3.37,0,0,1-.18-1.28c0-1.41,0-2.83,0-4.24,0-1,0-2.07.07-3.09.09-2.35,0-4.7.06-7a15.86,15.86,0,0,1,.09-2.07,6.65,6.65,0,0,0,0-.89c0-.11,0-.23.12-.3a.6.6,0,0,1,0,.37V37.75a.78.78,0,0,0,0,.37c0,.64.11,1.28.14,1.92a6,6,0,0,0,.29,1.3,3.1,3.1,0,0,1,.08.42,15.74,15.74,0,0,0,.74,1.69Z"/><path class="cls-19" d="M57.13.88c0-.1,0-.22-.06-.31s-.29-.3-.52-.33a3.2,3.2,0,0,0-.44,0H12.32a2,2,0,0,0-.49,0l-.11,0c-.34,0-.66.09-1,.1A10.67,10.67,0,0,0,8,1.09a12.19,12.19,0,0,0-4.37,3c-.12.13-.21.33-.44.29a1.78,1.78,0,0,1,.59-.71A13,13,0,0,1,7.86.92,12.5,12.5,0,0,1,12.33.06c5.48-.11,11,0,16.45,0H55.66a5.69,5.69,0,0,1,1,.09.6.6,0,0,1,.49.44,1.74,1.74,0,0,1,0,1.19C57.12,1.44,57.19,1.16,57.13.88Z"/><path class="cls-20" d="M3.14,4.34a5.29,5.29,0,0,0,.77-.73,12.11,12.11,0,0,1,5.38-3c.4-.11.82-.13,1.21-.27.07,0,.12,0,.18,0s.17,0,.09.1-.19.11-.3.13A1.22,1.22,0,0,0,10,.68a.34.34,0,0,1-.14,0c-.23,0-.48,0-.68.15a.28.28,0,0,1-.13,0c-.18-.08-.27.08-.38.17l-.13,0A1.45,1.45,0,0,0,8,1.31c-.63.43-1.36.66-2,1.13A20,20,0,0,0,4.32,3.8,14,14,0,0,0,1.87,7.21a10.6,10.6,0,0,0-.6,1.57,2.24,2.24,0,0,0-.18.61l0,.09A6.4,6.4,0,0,0,.78,11.1a.43.43,0,0,1,0,.11c0,.53-.09,1.06-.09,1.59,0,3.17,0,6.33,0,9.49.05,2.66,0,5.31.08,8,0,.88-.06,1.75,0,2.62,0,.43,0,.86.05,1.29a5.71,5.71,0,0,1,0,1.09c0,.47,0,.94,0,1.41,0,.84,0,1.68,0,2.53a.42.42,0,0,1-.06.21l0,0a1.77,1.77,0,0,1-.14-1c0-.4,0-.81,0-1.22V33.42a12.56,12.56,0,0,1,0-1.94c0-1.91,0-3.82,0-5.73-.1-4,0-8.06-.07-12.08,0-.46,0-.92,0-1.37s.07-1.06.08-1.59c0-.29.18-.57.21-.87a22,22,0,0,1,.75-2.6,3.78,3.78,0,0,1,.33-.57c0-.06.12-.16,0-.21s-.15,0-.17.13-.09,0-.14,0A8.13,8.13,0,0,1,3.14,4.34Z"/><path class="cls-10" d="M70,45.83a.86.86,0,0,0,.28-.29,18.41,18.41,0,0,0,1-1.78,6.45,6.45,0,0,1,.32-.87,3.61,3.61,0,0,0,.16-.42,15,15,0,0,0,.66-3.39,2.74,2.74,0,0,0,0-.64c0-4.12,0-8.24,0-12.37,0-2.79,0-5.59,0-8.39,0-.49,0-1,0-1.47a1.61,1.61,0,0,1,0-.31c0-.09,0-.21.2-.15a1.67,1.67,0,0,0,0,.77c.08,1.19,0,2.38,0,3.57,0,1.65,0,3.31,0,5q0,1.53,0,3.06c0,.72,0,1.44,0,2.16,0,2,0,3.95,0,5.92a26.18,26.18,0,0,1-.14,3.31,13.74,13.74,0,0,1-.54,2.73,14,14,0,0,1-1.12,2.46,6.26,6.26,0,0,1-1.38,1.82,0,0,0,0,1,0,0s0,0,0,0A3.52,3.52,0,0,0,70,45.83Z"/><path class="cls-21" d="M10.25,28.29c.3.35.18.76.15,1.14a4.35,4.35,0,0,0,0,1,2.06,2.06,0,0,1,0,.35v9c0,.5,0,.5.51.5h6a9.55,9.55,0,0,0,1.76-.18,7.93,7.93,0,0,0,1.53-.45,6,6,0,0,0,.8-.49c0,.26-.31.26-.36.44a4,4,0,0,1-2.37.8c-1.54.16-3.09.06-4.63.08l-2.86.05a.62.62,0,0,1-.65-.79,1.87,1.87,0,0,0,0-.47c0-3.32,0-6.64,0-9.95A3.15,3.15,0,0,1,10.25,28.29Z"/><path class="cls-14" d="M11.07,50.67c1.82.07,3.63,0,5.45,0h43.3a16.85,16.85,0,0,1,1.74,0,5.73,5.73,0,0,1-1.17.11H13.47A16.09,16.09,0,0,1,11.07,50.67Z"/><path class="cls-22" d="M37.44,37.75c.24,0,.36.25.48.42s.08.32.31.31c.05,0,.11.07.16.12a6.81,6.81,0,0,0,2,1.33,7.4,7.4,0,0,0,3.17.63A7.64,7.64,0,0,0,46,40.15a5.55,5.55,0,0,0,1.88-1.08,3.84,3.84,0,0,1,.51-.47c.17-.1.17,0,.22.09a7.21,7.21,0,0,1-2.17,1.5,8.67,8.67,0,0,1-4.31.49,6.79,6.79,0,0,1-3.83-1.83A4,4,0,0,1,37.44,37.75Z"/><path class="cls-10" d="M75.06,14.81c.16-.05.25.3.39.11s-.16-.23-.21-.38c-.19-.53-.56-1-.72-1.54,0-.17-.21-.36-.28-.57a22.1,22.1,0,0,0-.94-2,12.29,12.29,0,0,0-.89-1.87,5.59,5.59,0,0,1-.39-1c0-.05,0-.11,0-.12a.16.16,0,0,1,.19.13,6.28,6.28,0,0,0,.27.59c.53,1.31,1.21,2.56,1.77,3.85.4.9.87,1.77,1.21,2.69a.53.53,0,0,0,.11.15c.11,0-.06-.17.06-.21a.51.51,0,0,1,.15.31c0,.14-.13.31,0,.43s0,.14-.1.14c-.86,0-1.72,0-2.58,0a.54.54,0,0,0-.44.14c-.11-.2,0-.25.18-.3a1.24,1.24,0,0,1,.43,0c.67,0,1.33,0,2,0-.11-.17-.33-.19-.37-.37S75,14.83,75.06,14.81Z"/><path class="cls-11" d="M70.29,15.64c.23-.09.13.11.13.17q0,.92,0,1.83V38.16a.76.76,0,0,1-.11.51c0-1.1,0-2.19,0-3.29a6.44,6.44,0,0,0,0-.88c0-.59,0-1.18,0-1.78-.07-3.57,0-7.14,0-10.71,0-2,0-4,0-5.94A2.76,2.76,0,0,0,70.29,15.64Z"/><path class="cls-23" d="M55.3,36.81c.12-.05,0-.15,0-.22.19.09.25.26.35.4.29.46.7.81,1,1.25.49.65,1,1.26,1.54,1.9a.45.45,0,0,0,.4.18l2.71-.06a3.52,3.52,0,0,1,1,.13c.09.12,0,.16-.1.17h-.4c-.51-.05-1,0-1.55,0s-.82,0-1.22,0a1.35,1.35,0,0,1-1.12-.34c-.42-.43-.73-1-1.12-1.4s-.92-1.15-1.37-1.72A.56.56,0,0,1,55.3,36.81Z"/><path class="cls-24" d="M2.34,38.12c-.1-.1,0-.22,0-.33q0-8.17,0-16.34c0-3.13,0-6.27,0-9.41A9.18,9.18,0,0,1,2.62,9.9a9.67,9.67,0,0,1,.6-1.74A1.7,1.7,0,0,1,2.94,9a10.41,10.41,0,0,0-.35,1.44,17.35,17.35,0,0,0-.25,4.26q0,11.55,0,23.1A2.72,2.72,0,0,1,2.34,38.12Z"/><path class="cls-25" d="M27,38.18l-.21,0a.52.52,0,0,1,.52-.29h4.26c.31,0,.48.2.6.57s.37,1,.55,1.47a.52.52,0,0,0,.57.34h3c.05,0,.11,0,.09.1a.11.11,0,0,1-.09.06.61.61,0,0,1-.19,0c-.94,0-1.88,0-2.82,0-.19,0-.35-.15-.54-.08a17.09,17.09,0,0,1-.69-1.66c-.11-.26-.2-.55-.5-.66a.42.42,0,0,0-.22,0h-4c-.08,0-.15,0-.21,0Z"/><path class="cls-26" d="M38.12,16.93c.12-.11.22,0,.31,0a9.19,9.19,0,0,0,1.06.59,18.3,18.3,0,0,0,2.3.66,9.9,9.9,0,0,1,2.26.65A1.08,1.08,0,0,1,44.72,20a.15.15,0,0,1,0,.22.07.07,0,0,1-.11,0,.18.18,0,0,1,0-.2c.12-.3-.07-.51-.27-.67A2.87,2.87,0,0,0,43,18.84c-.35-.07-.69-.2-1-.28-.7-.16-1.41-.32-2.1-.55h0c-.29-.13-.59-.23-.87-.37A2.2,2.2,0,0,1,38.12,16.93Z"/><path class="cls-27" d="M39.89,18a8.91,8.91,0,0,1,1.33.33c.79.17,1.57.39,2.35.6a1.92,1.92,0,0,1,.81.46.62.62,0,0,1,.18.82c.18,0,.14-.14.16-.21s0-.25.11-.35a.75.75,0,0,1-.32,1l-.33.17c-.07,0-.18.13-.14-.08s-.09,0-.14,0a6.17,6.17,0,0,1-3-.05,12,12,0,0,1-2.26-.82c-.61-.27-.64-.18-.88.41a2.09,2.09,0,0,1-.51,1c.15-.4.3-.8.47-1.18.25-.58.35-.63.91-.35a9.72,9.72,0,0,0,2,.77,5.93,5.93,0,0,0,3.29.08.75.75,0,0,0,.6-.68c0-.29-.21-.45-.43-.61a4.67,4.67,0,0,0-1.55-.53c-.81-.22-1.63-.42-2.44-.63A.4.4,0,0,1,39.89,18Z"/><path class="cls-28" d="M41.46,31.73c-.15,0-.23.18-.44.16a2.4,2.4,0,0,1,.86-.73,4.07,4.07,0,0,1,2.55-.31,2.91,2.91,0,0,1,1.74,1c.08.1.13.2.29.16s.17,0,.15.1-.1.16-.19.1a.38.38,0,0,0-.33,0c-.13-.13-.26-.27-.4-.39A3.66,3.66,0,0,0,43.74,31,3.39,3.39,0,0,0,41.46,31.73Z"/><path class="cls-29" d="M75.06,14.87c.13.19.44.19.54.48H74.18a8.69,8.69,0,0,1-1.14,0c-.16,0-.29,0-.28.24l-.09.13a.8.8,0,0,1-.34-.7.33.33,0,0,1,.35-.25,6.32,6.32,0,0,1,2.17.1C74.91,14.85,75,14.82,75.06,14.87Z"/><path class="cls-30" d="M.11,13.49c0,.11,0,.23,0,.34V37.54c0,.09,0,.18,0,.28s.08.27-.06.38C0,37.08,0,36,0,34.85Q0,24,0,13.17c0-.25,0-.5,0-.75C.14,12.77,0,13.13.11,13.49Z"/><path class="cls-31" d="M49.93,28.54s.07-.15.11,0a.7.7,0,0,1,0,.25c0,3.69,0,7.39,0,11.08,0,.08.14.28-.12.27Z"/><path class="cls-32" d="M48.36,20.63a3,3,0,0,1,0-.31c-.08.08-.17.18-.17,0s0-.52,0-.78a3.3,3.3,0,0,0-1.57-2.72.71.71,0,0,1-.31-.33,5.23,5.23,0,0,1,1.15.72s.07.15.17.08,0,0,.08,0a2.55,2.55,0,0,1,.76,1.53A3.57,3.57,0,0,1,48.36,20.63Z"/><path class="cls-33" d="M32.05,21.89c0-.05.08-.15.13,0l.29.75c.1.24.18.49.3.72a.4.4,0,0,0,.4.2c.79-.05,1.59,0,2.38,0a8.23,8.23,0,0,1,.86,0c.15,0,.3,0,.28.25H33.81a2.16,2.16,0,0,1-.84,0c-.1,0-.23-.06-.28-.18A6.69,6.69,0,0,1,32.05,21.89Z"/><path class="cls-27" d="M37.25,21.26c0,.25-.15.43-.25.62a.49.49,0,0,0,.12.65,2.09,2.09,0,0,0,.84.54,13,13,0,0,0,1.84.56c.48.06,1,.14,1.42.19s.48.13.48.51,0,.77-.05,1.15.16.55.55.54A12.36,12.36,0,0,0,43.92,26c-.28.24-.62.12-.93.15a6.48,6.48,0,0,1-.88,0,.53.53,0,0,1-.58-.61c0-.37.08-.74.07-1.12s-.11-.47-.44-.48a10.89,10.89,0,0,1-3.24-.73c-.37-.13-.65-.42-1-.56a.31.31,0,0,1-.13-.41A4.59,4.59,0,0,1,37.25,21.26Z"/><path class="cls-34" d="M47.6,12.23c0-.21.18-.37.21-.57s.25-.32-.12-.26c-.1,0-.12-.14-.06-.18.24-.15,0-.19,0-.24a8,8,0,0,0-2.07-.76,3.51,3.51,0,0,0-.86-.13c-.38,0-.58-.25-.58-.67V8.33c0-.25-.09-.38-.37-.37-.62,0-1.25,0-1.88,0a.41.41,0,0,1,.31-.12H43.7c.38,0,.49.11.5.48a5.89,5.89,0,0,1,0,1,.48.48,0,0,0,.48.62,8.13,8.13,0,0,1,3.08.95.53.53,0,0,1,.21.6A1.26,1.26,0,0,1,47.6,12.23Z"/><path class="cls-35" d="M47.68,17.24H47.6a4.48,4.48,0,0,0-1.53-1.08,15.17,15.17,0,0,0-3-.82,4.43,4.43,0,0,1-1.92-.7l.18.27a.5.5,0,0,1-.51-.43c-.08-.25-.12-.55.23-.69a1,1,0,0,0,.75,1.09,9.54,9.54,0,0,0,1.57.41,9.77,9.77,0,0,1,3.48,1.14A2.33,2.33,0,0,1,47.68,17.24Z"/><path class="cls-11" d="M75.06,14.87a15.31,15.31,0,0,0-2.14-.07c-.57,0-.66.15-.4.65a1.3,1.3,0,0,0,.15.23v.07c-.22.09-.08.29-.12.44s0,.34-.24.2a3.38,3.38,0,0,1-.06-.78,1.87,1.87,0,0,0-.14-.6c-.12-.21,0-.44.38-.51a4,4,0,0,1,1.37-.08,1.4,1.4,0,0,1,.82.26.45.45,0,0,0,.38.13Z"/><path class="cls-36" d="M26.92,10.54c.12.1,0,.2,0,.28l-2.15,4.85L24,17.44c0,.06,0,.18-.14.12a3.08,3.08,0,0,1,.42-1c.64-1.5,1.32-3,2-4.5C26.46,11.56,26.66,11,26.92,10.54Z"/><path class="cls-37" d="M17.44,28c-.08.1-.19.06-.29.06-2.13,0-4.26,0-6.39,0-.09,0-.19,0-.26-.05,2-.1,4-.09,5.94,0Z"/><path class="cls-34" d="M41.15,13.63A1.63,1.63,0,0,1,42.41,13a4.59,4.59,0,0,1,2.2.27,13.13,13.13,0,0,1,1.51.59c.51.23.7.14.9-.36s.3-.75.46-1.12a.18.18,0,0,1,.12-.13c-.16.56-.42,1.08-.6,1.63-.08.24-.41.2-.64.16a8.68,8.68,0,0,1-1.15-.47A7.81,7.81,0,0,0,42.82,13,2.73,2.73,0,0,0,41.15,13.63Z"/><path class="cls-38" d="M49.93,23.09a1.18,1.18,0,0,0,0-.56q0-5,0-9.93a.74.74,0,0,1,.06-.35V23.11c0,.07.13.27-.12.21Z"/><path class="cls-39" d="M22.28,40.45a1.51,1.51,0,0,1,.63-.13c1,0,2,0,2.94,0,.18,0,.07.09.06.15l-.06.06c-.1.06-.2,0-.31,0H22.77a.81.81,0,0,0-.31,0C22.38,40.56,22.28,40.58,22.28,40.45Z"/><path class="cls-40" d="M62.72,10.1c0,.12-.11.13-.21.13H59.24a.22.22,0,0,1-.17-.06.2.2,0,0,1,.26-.13,8.55,8.55,0,0,0,1.6,0c.52,0,1,0,1.56,0A.32.32,0,0,1,62.72,10.1Z"/><path class="cls-41" d="M50.3,40.56c-.15-.27.07-.24.22-.24h2.87s.12,0,.13.06-.05.11-.11.12H50.88c-.14,0-.28,0-.4.06Z"/><path class="cls-42" d="M26.6,30.23c.15.13,0,.26,0,.36-.43,1-.88,2-1.33,3-.25.57-.5,1.14-.76,1.71,0,.06,0,.18-.14.13.22-.62.52-1.21.78-1.81C25.6,32.48,26.11,31.35,26.6,30.23Z"/><path class="cls-43" d="M53.88,10.1c0,.19-.19.13-.3.13H50.17a.3.3,0,0,1,.41-.18,1.48,1.48,0,0,0,.59,0c.8-.11,1.61.05,2.41-.06A.36.36,0,0,1,53.88,10.1Z"/><path class="cls-44" d="M62,28c-.07.07-.15.05-.23.05H58.5c-.08,0-.17,0-.23-.05a19.23,19.23,0,0,1,3.22,0A3.73,3.73,0,0,1,62,28Z"/><path class="cls-45" d="M56.38,30c.08.05,0,.1,0,.15-.75.8-1.49,1.61-2.23,2.42,0,0-.07.12-.15.06a5.75,5.75,0,0,1,.78-.92C55.29,31.1,55.84,30.54,56.38,30Z"/><path class="cls-9" d="M69.15,11c.09.09,0,.18,0,.28l-1.21,2.42c0,.09-.08.2-.22.17.47-.9.9-1.81,1.32-2.73A.26.26,0,0,1,69.15,11Z"/><path class="cls-8" d="M.46,41.07a11.62,11.62,0,0,0,.8,2.44.52.52,0,0,1,0,.18.08.08,0,0,1,0,.12,14.82,14.82,0,0,1-.86-2.42l-.12-.57C.51,40.79.32,41,.46,41.07Z"/><path class="cls-5" d="M57.94,40.2c.06,0,.15,0,.18,0,.28.32.64.28,1,.28h2.44c.09,0,.18,0,.26.05H58.57A.64.64,0,0,1,57.94,40.2Z"/><path class="cls-9" d="M70.29,15.44l-.07.11a.68.68,0,0,0-.44-.12l-2.25,0c-.51,0-.53,0-.38-.57,0,.17.21.24.2.42.31,0,.62,0,.94,0h1.56C70,15.28,70.19,15.27,70.29,15.44Z"/><path class="cls-6" d="M27.11,38.13c.05-.08.14-.07.22-.07h4c.08,0,.17,0,.24,0Z"/><path class="cls-46" d="M8.43,15.5s.13-.13.1,0a18.67,18.67,0,0,0-.13,2.36s0,0,0,.05a5.55,5.55,0,0,1,.05-2.07C8.43,15.71,8.42,15.6,8.43,15.5Z"/><path class="cls-32" d="M46.73,22.9c.21-.28.51-.43.74-.69a4.67,4.67,0,0,0,.77-1.33c0-.08,0-.18.12-.24a1.94,1.94,0,0,1-.48,1.16A2.46,2.46,0,0,1,46.73,22.9Z"/><path class="cls-47" d="M21.9,21.89s.11,0,.1,0a7.3,7.3,0,0,1-.65,1.42h-.06a1.44,1.44,0,0,1,.26-.75C21.66,22.34,21.79,22.12,21.9,21.89Z"/><path class="cls-6" d="M22.46,40.56c.11-.09.24-.05.36-.05h3c-.05.08-.13.07-.2.07Z"/><path class="cls-34" d="M41.52,9.79c0,.1,0,.22-.11.23-.53.06-1,.39-1.52.4A3.69,3.69,0,0,1,41,10,1.13,1.13,0,0,0,41.52,9.79Z"/><path class="cls-34" d="M41.83,8a.8.8,0,0,0-.19.59c0,.29,0,.58,0,.87a.41.41,0,0,1-.13.36c.14-.52,0-1,0-1.57C41.6,8.07,41.63,7.93,41.83,8Z"/><path class="cls-8" d="M3.59,43.45A4.29,4.29,0,0,1,3,42.36a1.76,1.76,0,0,1-.19-.6,6.92,6.92,0,0,1,.47,1.08A1.52,1.52,0,0,1,3.59,43.45Z"/><path class="cls-8" d="M0,38.2l.06-.38a13,13,0,0,1,0,2Z"/><path class="cls-10" d="M68,45s0,.1,0,.12a4.45,4.45,0,0,1-.86.82L67,46C67.37,45.67,67.61,45.3,68,45Z"/><path class="cls-48" d="M57.13.88c.14.27,0,.56.06.84a.66.66,0,0,1-.62.6.9.9,0,0,0,.56-1A.86.86,0,0,1,57.13.88Z"/><path class="cls-24" d="M4.1,6.47l.18-.06a10.23,10.23,0,0,1-.62,1V7.22c-.05-.2.13-.3.21-.44A3.55,3.55,0,0,1,4.1,6.47Z"/><path class="cls-24" d="M4.34,6.22a4.23,4.23,0,0,1,.82-.87c0,.25-.29.33-.41.52a4.5,4.5,0,0,1-.46.52Z"/><path class="cls-24" d="M8,3.32a3.3,3.3,0,0,1,1.24-.48c-.22.22-.54.23-.81.34S8.16,3.36,8,3.32Z"/><path class="cls-49" d="M69.53,46.47a.08.08,0,0,0,0,.05,2.45,2.45,0,0,1-.88.87Z"/><path class="cls-10" d="M66.27,46.58s0,0,0,0a1.41,1.41,0,0,1-.86.54Z"/><path class="cls-27" d="M39,17.63a2.23,2.23,0,0,1,.87.37A2.05,2.05,0,0,1,39,17.63Z"/><path class="cls-24" d="M5.93,4.65a1.66,1.66,0,0,1,.61-.5C6.35,4.34,6.22,4.6,5.93,4.65Z"/><path class="cls-49" d="M67.55,48.29a2.38,2.38,0,0,1,.6-.44A1,1,0,0,1,67.55,48.29Z"/><path class="cls-24" d="M6.55,4.15a1.87,1.87,0,0,1,.68-.43A1.44,1.44,0,0,1,6.55,4.15Z"/><path class="cls-8" d="M.16,39.94s.12-.16.11,0,0,.47,0,.71Z"/><path class="cls-9" d="M67.65,14.1c0,.22,0,.44-.3.5C67.47,14.45,67.47,14.22,67.65,14.1Z"/><path class="cls-9" d="M75.88,15.3c-.39-.1-.06-.29,0-.43C75.94,15,75.85,15.16,75.88,15.3Z"/><path class="cls-14" d="M1.27,43.81l0-.12c.06,0,.17-.09.14.05s.07.25,0,.39C1.3,44.09,1.35,43.9,1.27,43.81Z"/><path class="cls-24" d="M5.36,5.15c.16-.19.29-.42.55-.49C5.74,4.84,5.62,5.08,5.36,5.15Z"/><path class="cls-49" d="M66.8,48.84a1.69,1.69,0,0,1,.55-.36A.8.8,0,0,1,66.8,48.84Z"/><path class="cls-24" d="M7.24,3.71a.94.94,0,0,1,.5-.24A.62.62,0,0,1,7.24,3.71Z"/><path class="cls-24" d="M3.41,7.78V7.66a.18.18,0,0,1,.12-.19l.13-.06A.47.47,0,0,1,3.41,7.78Z"/><path class="cls-50" d="M18.45,37.09a1.39,1.39,0,0,1-1.29.77c-.72.06-1.44,0-2.16,0a.16.16,0,0,1-.11,0H17a2,2,0,0,0,1-.27,1,1,0,0,0,.11-1.67A1,1,0,0,1,18.45,37.09Z"/><path class="cls-51" d="M17.66,37.82a2.87,2.87,0,0,1-.83.12H14.77c0-.1.1-.06.12-.12H17a2,2,0,0,0,1-.27,1,1,0,0,0,.11-1.67c.17-.12.25.06.28.13A1.16,1.16,0,0,1,17.66,37.82Z"/><path class="cls-50" d="M28.69,15.23a.63.63,0,0,1-.14.24,4.75,4.75,0,0,1,.32-.73c.05-.09.09-.21.24-.19A1.62,1.62,0,0,0,28.69,15.23Z"/><path class="cls-50" d="M30.55,18c0,.2-.12.25-.28.25-.8,0-1.6,0-2.4,0a.51.51,0,0,1-.4-.25,1.65,1.65,0,0,0,1.13.19h1.53A.4.4,0,0,0,30.55,18Z"/><path class="cls-52" d="M30.67,18.26a.41.41,0,0,1-.18,0c-.94,0-1.87,0-2.81,0-.2,0-.33-.08-.21-.31a1.65,1.65,0,0,0,1.13.19h1.53a.4.4,0,0,0,.42-.2c.1-.06.16,0,.18.07S30.75,18.22,30.67,18.26Z"/><path class="cls-53" d="M29.18,14.29a2,2,0,0,1-.07.26,1.62,1.62,0,0,0-.42.68.63.63,0,0,1-.14.24A10.68,10.68,0,0,1,29,14.23c0-.05.06-.1.11-.09A.13.13,0,0,1,29.18,14.29Z"/><path class="cls-54" d="M37.62,15.68a3.76,3.76,0,0,1,2.78-5.11C38.06,11.54,37.07,13.2,37.62,15.68Z"/><path class="cls-27" d="M38.32,19.82a16.75,16.75,0,0,1-1.14,2.54c0-.22-.2-.49,0-.62a.56.56,0,0,0,.25-.31c.22-.48.42-1,.64-1.44C38.11,19.94,38.13,19.87,38.32,19.82Z"/><path class="cls-55" d="M41.47,10.24c.4-.15.37-.49.36-.81V8.37c0-.09,0-.23.1-.23s.09.13.09.21c0,.45,0,.9,0,1.34S41.89,10.23,41.47,10.24Z"/><path class="cls-34" d="M44.14,10.16a.41.41,0,0,1-.3-.41V8.4c0-.07,0-.2.08-.2s.09.12.08.22a4.43,4.43,0,0,0,0,1.36C44.05,9.9,44.1,10,44.14,10.16Z"/><path class="cls-50" d="M29.93,33c-.07-.12-.14-.24-.2-.37a.78.78,0,0,1-.25-.43c-.06-.1-.17-.19-.19-.32.13.06.17.19.24.3a.54.54,0,0,1,0,.11l0,0a.64.64,0,0,0,.08.14.86.86,0,0,0,.1.16C29.82,32.79,30,32.88,29.93,33Z"/><path class="cls-56" d="M29.93,33c-.07-.12-.14-.24-.2-.37a2.67,2.67,0,0,0-.25-.43c-.06-.1-.17-.19-.19-.32s0-.18.14-.18.1.09.13.16l.39,1A.12.12,0,0,1,29.93,33Z"/><path class="cls-57" d="M30.74,35c.14.13.22.26.15.42a.15.15,0,0,1-.11,0C30.66,35.34,30.76,35.19,30.74,35Z"/><path class="cls-58" d="M10,.64c.2-.23.52-.1.75-.25,0,0,0,0,0,0l-.07,0a3.75,3.75,0,0,1,1-.12.9.9,0,0,0,.7.06A2.86,2.86,0,0,1,13,.2H25.28a6.47,6.47,0,0,1,1.16.08,3.24,3.24,0,0,0,.62-.05c.62,0,1.25,0,1.86,0,2.53.09,5.06,0,7.58.06,1.64,0,3.28,0,4.92,0,2,.09,4,0,6,0a13.61,13.61,0,0,0,1.91.12c.94-.12,1.87.15,2.81.06s2,.12,2.93.07A2.58,2.58,0,0,0,56.42.44c.21-.14.39,0,.46.32v.32a.38.38,0,0,0-.06.23.32.32,0,0,1-.18.31c-.15,0-.24-.05-.32-.14a1.79,1.79,0,0,1-.13-.14.53.53,0,0,0-.56-.24c-.51,0-1,0-1.53,0-2.49,0-5-.11-7.46,0-2.77.14-5.55,0-8.32.11-1.18,0-2.36,0-3.54.06-2.49.11-5,0-7.46.07-1.32,0-2.65,0-4,.06-.77,0-1.55,0-2.31.06s-1.28-.06-1.9,0c-1.12.1-2.23,0-3.35.07-1.29,0-2.58.07-3.87,0A7.08,7.08,0,0,0,10,1.89a6.83,6.83,0,0,0-1.59.44l-.09,0a1.66,1.66,0,0,0-.61.3A11.84,11.84,0,0,0,6,3.67c-.29.23-.57.48-.88.7a2.82,2.82,0,0,1-.33.36,6.51,6.51,0,0,0-.55.72,1.32,1.32,0,0,1-.29.37,4.09,4.09,0,0,0-1,1.79A6.08,6.08,0,0,0,2.5,8.89a1,1,0,0,1-.24.6s-.08.09-.06.14c.1.28-.07.52-.11.79v.18c.06.13,0,.26.05.39a5.06,5.06,0,0,0-.08,1.29.43.43,0,0,1,0,.11c0,1,0,2.1,0,3.15,0,.28,0,.55,0,.83a16,16,0,0,1-.13,2.49c0,.16,0,.44-.2.43S1.5,19,1.5,18.85a4.37,4.37,0,0,0,0-.81,11.23,11.23,0,0,1,0,1.52c0,.12,0,.25,0,.37-.09,2.6,0,5.2-.08,7.8,0,2,0,3.93-.06,5.89,0,1.05,0,2.11,0,3.16s-.08,1.86,0,2.78A11.57,11.57,0,0,0,1.79,42a.4.4,0,0,1,0,.15c0,.14,0,.29-.14.34s-.23-.09-.28-.23a10.81,10.81,0,0,1-.63-2.15A.47.47,0,0,0,.71,40c0-.18-.13-.37,0-.56h0c.17,0,.19.13.23.25a3,3,0,0,1,.09.52C1,37.3,1,34.38,1,31.47c.06-3.21,0-6.41.06-9.62.09-2.94,0-5.88.06-8.83a13.94,13.94,0,0,1,.25-2.73A13.85,13.85,0,0,1,2.17,7.8,11.39,11.39,0,0,1,3.74,5.29,6.79,6.79,0,0,1,5.05,3.92c.46-.32.84-.75,1.34-1A10.61,10.61,0,0,1,9.2,1.63a1.23,1.23,0,0,0,.33-.08A15.05,15.05,0,0,1,11.71,1a2.33,2.33,0,0,1,.91,0,12.65,12.65,0,0,0,2.22,0c.79-.05,1.58,0,2.37-.08.62,0,1.24,0,1.85-.06a1.62,1.62,0,0,1,.44,0A3.89,3.89,0,0,0,21,.82a1.35,1.35,0,0,1,.32,0A11.22,11.22,0,0,1,19.43.74a2.91,2.91,0,0,0-.59,0A2.76,2.76,0,0,1,17.66.71a1.83,1.83,0,0,0-.47,0H11.27c-.31,0-.62.07-.94.06C10.21.73,10.08.75,10,.64Z"/><path class="cls-59" d="M64.84,48.91a13.06,13.06,0,0,1-2.9.77c-.93.13-1.87,0-2.8.15a4.55,4.55,0,0,1-.52,0h-3.8c-1.28,0-2.57,0-3.86-.07s-2.44,0-3.65-.06c-1.48-.06-3-.11-4.43-.12-.67,0-1.33,0-2,0a6.33,6.33,0,0,0-1.23,0,4.44,4.44,0,0,1-.62-.05c-.88,0-1.75,0-2.63,0s-1.89,0-2.84,0c-.5,0-1,0-1.51,0s-1.3.06-2,0-1.29,0-1.93,0a9.78,9.78,0,0,0-2,0,2.69,2.69,0,0,1-.74-.05,22,22,0,0,0-2.81.12,5.77,5.77,0,0,1-.72,0,5.79,5.79,0,0,0-.93,0,18,18,0,0,1-2.2.07c-1.79,0-3.57.12-5.36.15-.85,0-1.7,0-2.55,0a7.55,7.55,0,0,1-1-.18,10,10,0,0,1-2-.55,3.61,3.61,0,0,1-1.08-.49c-.24-.17-.57-.29-.84-.45s-.81-.54-1.22-.81a.23.23,0,0,1-.1-.19,4.9,4.9,0,0,1,1.08.68,11.58,11.58,0,0,0,1.53.87c.61.27,1.27.43,1.91.64a12.8,12.8,0,0,0,4.36.37c.41,0,.83-.05,1.24-.05,1.25,0,2.5-.11,3.75-.15.66,0,1.33,0,2-.1.21,0,.36-.19.57-.14a3.34,3.34,0,0,0-1.4-.18A3.31,3.31,0,0,1,18.67,49c-.23,0-.45,0-.68,0-1-.08-2-.19-3-.21a1.26,1.26,0,0,1-.57-.11h3.45a.65.65,0,0,0,.56,0h.25a3.58,3.58,0,0,0,1.08.07,3.27,3.27,0,0,1,.44,0,18.68,18.68,0,0,0,2.24.12c.83,0,1.67.09,2.5.06a18.23,18.23,0,0,1,2.09,0,11,11,0,0,0,1.28,0c.77-.05,1.54,0,2.31,0,.53,0,1.07,0,1.6,0,1.11,0,2.22,0,3.34,0a13.39,13.39,0,0,0,1.9,0,21.87,21.87,0,0,1,2.29,0,14.1,14.1,0,0,0,1.59-.07,4.77,4.77,0,0,1,.93,0c1.13.08,2.24-.08,3.36-.11H54.3a2.39,2.39,0,0,1-.74.12c-1.16,0-2.31.13-3.47.14-.29,0-.59,0-.9,0a28.7,28.7,0,0,0-3.58.17,4.76,4.76,0,0,1-.85,0c0,.13.12.12.19.12.84,0,1.66.12,2.49.15.49,0,1,0,1.46,0,1.66.08,3.32.13,5,.19H54c2.22.07,4.44.09,6.66,0a8.52,8.52,0,0,0,2.69-.44c.22-.07.44-.11.66-.17S64.54,48.87,64.84,48.91Z"/><path class="cls-24" d="M.71,40c.09,0,.11.11.13.2a9.72,9.72,0,0,0,.56,2,1.17,1.17,0,0,0,.05.11c.06.1.1.24.25.18s.09-.17,0-.28a14.32,14.32,0,0,1-.51-2.51,1.08,1.08,0,0,1,0-.31c0-3.52-.05-7,0-10.54.05-2.32,0-4.65.06-7,0-1.06,0-2.12.12-3.18a2.37,2.37,0,0,0,0-.92c0-.05,0-.11.09-.14.09.55.09,1.11.14,1.66A11.38,11.38,0,0,0,2,16.37s0,0,.06,0c0,1.43.05,2.85,0,4.28a35.06,35.06,0,0,0-.09,3.55c.08,1.49,0,3,.05,4.47,0,.8-.19,1.58-.2,2.38,0,.34,0,.68,0,1a.49.49,0,0,1-.21.49.19.19,0,0,0-.1.24,1.6,1.6,0,0,1-.07.92,4.92,4.92,0,0,0-.06,1.21c0,.77,0,1.54,0,2.31,0,.54,0,1.1,0,1.65A6,6,0,0,0,1.68,41c.1.23,0,.51.11.76a9.72,9.72,0,0,0,.69,1.63c.21.42.34.9.57,1.33,0,0,0,.1,0,.14a.12.12,0,0,1-.17,0,2.51,2.51,0,0,1-.26-.31,12.12,12.12,0,0,1-1-1.45A12,12,0,0,1,1,41.19,4,4,0,0,1,.71,40Z"/><path class="cls-48" d="M56.88.76c-.26-.36-.26-.35-.63-.1s-.51.08-.75.09A14.88,14.88,0,0,1,53.19.66,5.92,5.92,0,0,0,52,.71c-.61,0-1.22-.16-1.83-.12a8,8,0,0,1-1.55,0A19.35,19.35,0,0,0,46.48.51h-.66c-2.89,0-5.78,0-8.67-.08-2.52,0-5,0-7.57-.06-.79,0-1.57,0-2.36,0-4.51-.15-9-.05-13.54-.08A8.35,8.35,0,0,0,12.1.38.35.35,0,0,1,11.68.2h.06a.66.66,0,0,1,.34,0H56.36a.66.66,0,0,1,.34,0,.51.51,0,0,1,.37.37Z"/><path class="cls-48" d="M4.72,4.65c.16-.05.17-.25.32-.31a3.82,3.82,0,0,0,1.12-.78,7.56,7.56,0,0,1,1.56-.89c.2-.11.33-.33.58-.34h0a12.06,12.06,0,0,1,2.29-.6,8.83,8.83,0,0,1,1.92-.15c.93,0,1.86,0,2.79,0s2.08,0,3.12,0c.71,0,1.42,0,2.13,0,1.55-.06,3.1-.13,4.65-.13,2,0,4.07-.09,6.1-.07,1.83,0,3.66,0,5.49,0,2.89-.09,5.78,0,8.67-.07,2.18-.06,4.37,0,6.55-.05.52,0,1,.1,1.56.07.74-.06,1.48,0,2.22-.08.14,0,.29,0,.4.12v.06a1.85,1.85,0,0,1-.52.06c-2.09,0-4.18-.05-6.27,0s-4.17,0-6.26.06c-.29,0-.59,0-.89,0l-4.63.08c-.65,0-1.31,0-2,0-1.74,0-3.48,0-5.22,0-2.46.05-4.92,0-7.38.08-.66,0-1.32,0-2,0a14.14,14.14,0,0,1-2.52,0,3.55,3.55,0,0,0-.64.06c-1.94,0-3.87,0-5.8,0a8.71,8.71,0,0,0-2.73.43A9.42,9.42,0,0,0,6.76,3.43,12.06,12.06,0,0,0,4.92,5.09c-.18.2-.42.37-.61.57a2.33,2.33,0,0,0-.5.77,1.23,1.23,0,0,1-.27.34c-.33.35-.33.88-.7,1.2a.5.5,0,0,1,0-.38A5.52,5.52,0,0,1,4,5.73,3.27,3.27,0,0,0,4.72,4.65Z"/><path class="cls-24" d="M4.72,4.65A2.53,2.53,0,0,1,3.84,6a3.33,3.33,0,0,0-.57.85A3.42,3.42,0,0,0,2.84,8V8.1a6.82,6.82,0,0,0-.31,1h0c0,.41-.27.73-.31,1.13l-.13.19a.29.29,0,0,1,0-.3.51.51,0,0,0,0-.42.18.18,0,0,1,0-.21c.33-.29.29-.71.4-1.08A6.43,6.43,0,0,1,3.62,6C4,5.57,4.31,5.07,4.72,4.65Z"/><path class="cls-48" d="M2,16.37H2v-.81a2.86,2.86,0,0,0,0-.65V12.67a.54.54,0,0,1,0-.31V12.3s0,0,.06,0C2.07,13.66,2.15,15,2,16.37Z"/><path class="cls-48" d="M2.22,10.23a1,1,0,0,1,.2-.76c.1-.1,0-.27.11-.37A2,2,0,0,1,2.22,10.23Z"/><path class="cls-48" d="M56.25,1.39s.08,0,.11.05c.24.21.31.19.39-.13a.41.41,0,0,1,.13-.23,1.08,1.08,0,0,0,0,.18.37.37,0,0,1-.24.42c-.17.08-.26-.07-.36-.17a1.25,1.25,0,0,1-.09-.12h0S56.23,1.36,56.25,1.39Z"/><path class="cls-24" d="M.59,31.48v1.94a2.55,2.55,0,0,1-.06-1A2.15,2.15,0,0,1,.59,31.48Z"/><path class="cls-48" d="M2.53,9.1a1.69,1.69,0,0,1,.31-1c.05,0,.08.09.05.13C2.69,8.49,2.69,8.83,2.53,9.1Z"/><path class="cls-24" d="M2.09,12.3H2v-1c0-.1,0-.21.06-.29.19.1.07.25.06.38C2,11.66,2.13,12,2.09,12.3Z"/><path class="cls-12" d="M4.1,6.47c-.08.29-.34.47-.44.75-.1,0-.1-.06-.06-.12A1.82,1.82,0,0,1,4.1,6.47Z"/><path class="cls-48" d="M2.15,11.36c0-.13.05-.27-.06-.38V10.6C2.16,10.85,2.3,11.09,2.15,11.36Z"/><path class="cls-12" d="M3.53,7.47l-.12.19s-.13.06-.1,0S3.33,7.35,3.53,7.47Z"/><path class="cls-10" d="M74.68,14.68a4.31,4.31,0,0,0-2.14-.11c-.38.06-.44.25-.31.61a3.3,3.3,0,0,1,.13,1.25,5.55,5.55,0,0,1,0,.91,3.69,3.69,0,0,1,0,1.24,5.3,5.3,0,0,0,0,.69c0,1.61-.1,3.23,0,4.85,0,.62,0,1.24,0,1.86a9.49,9.49,0,0,1,0,1.41,17.15,17.15,0,0,0,0,2.15c0,1.31,0,2.63,0,3.94,0,1.13,0,2.25,0,3.38,0,.18,0,.35,0,.53a2.75,2.75,0,0,0,0,1,7.07,7.07,0,0,1-.2,2.1.25.25,0,0,1-.11.17c-.24.58-.47,1.15-.74,1.71-.11.23-.4.21-.46.46-.12-.29.09-.52.17-.75s.18-.74.27-1.11a15.46,15.46,0,0,0,.24-4.29c-.06-1.44,0-2.88,0-4.32,0-.56-.08-1.13,0-1.7s.07-1.22,0-1.83a10.17,10.17,0,0,1,0-1.56A19.8,19.8,0,0,0,71.31,25c0-.71.08-1.42.09-2.13,0-.87,0-1.74,0-2.61a25.4,25.4,0,0,1-.12-2.89c.06-.68,0-1.35,0-2a.69.69,0,0,0-.68-.78c-.52-.07-1-.13-1.58-.15-.32,0-.59-.1-.79.25,0,.08-.22.1-.34.14a5.79,5.79,0,0,0,.87-1c.08-.13.2-.24.15-.43a.17.17,0,0,1,.19-.19c.13,0,0,.13,0,.21a1.55,1.55,0,0,1,0,.21c-.09.28.06.43.3.48a6.53,6.53,0,0,0,1.08.15,1.33,1.33,0,0,1,1,.54.3.3,0,0,1,0,.33,2.72,2.72,0,0,0,0,.49,18.66,18.66,0,0,0,0,2.59c.1,4,0,8,.07,12,0,1.73,0,3.46.05,5.19,0,1.33,0,2.66.06,4,0,.27-.17.55,0,.83a1.6,1.6,0,0,0,.31-1c0-.44.09-.88.09-1.33,0-2.1,0-4.2,0-6.3.08-4.66,0-9.31.07-14,0-.66-.06-1.33,0-2a.92.92,0,0,0-.25-.74c-.23-.26-.18-.42.16-.51a3.33,3.33,0,0,1,1.57-.11c.27.05.56,0,.8.19C74.54,14.54,74.64,14.58,74.68,14.68Z"/><path class="cls-13" d="M45.59,48.66a2,2,0,0,1-.74.09,20,20,0,0,1-2.17.15,5.88,5.88,0,0,1-.93-.1,3.77,3.77,0,0,0-.89.06c-.59.07-1.17,0-1.75,0s-1.22,0-1.83,0a12.18,12.18,0,0,1-1.91,0,8,8,0,0,0-1.55,0,8.27,8.27,0,0,1-.86-.05c-.71,0-1.41,0-2.11,0-.47,0-1,0-1.42,0a3.63,3.63,0,0,0-1,0,2.46,2.46,0,0,1-.47,0c-.8.08-1.61.05-2.41.08a22.83,22.83,0,0,1-2.34,0,11.47,11.47,0,0,0-1.76-.07,2,2,0,0,1-.81-.06c-.54-.14-1.09.06-1.63-.06-.12,0-.26,0-.33-.12h5.14a11.45,11.45,0,0,0,2.19,0Z"/><path class="cls-16" d="M26,48.66c-.11.12-.28.08-.41.07a5.91,5.91,0,0,1-1.78-.07Z"/><path class="cls-13" d="M18.39,48.66c-.19.21-.38.15-.56,0Z"/><path class="cls-59" d="M72.3,17.31a2.62,2.62,0,0,1,.06-.88c.09-.06.06-.21.19-.24V38.5c-.08.2,0,.42-.06.63a11,11,0,0,1-.38,2.49c-.09.3-.17.59-.25.89a2.83,2.83,0,0,1-.25.24.57.57,0,0,0-.19.29,11.11,11.11,0,0,1-.81,1.32c-.31.49-.7.91-1,1.38-.16.23-.33.47-.67.41-.5.42-1,.79-1.48,1.25a1,1,0,0,1-.53.31,2,2,0,0,1,.62-.61c.36-.28.62-.66,1-.92a2,2,0,0,1,.3-.21c.15-.07.34-.09.23-.34,0-.07,0-.15.11-.16.25,0,.31-.2.4-.38a.52.52,0,0,1,.18-.21,1.13,1.13,0,0,0,.46-.57.33.33,0,0,1,.11-.15c.34-.23.45-.65.73-.92s.21-.8.48-1.14A4.16,4.16,0,0,0,72,40.94a1,1,0,0,0,0-.25c.08-.51.17-1,.24-1.53s-.1-.93,0-1.4c0-.11,0-.23.06-.33a9.16,9.16,0,0,0,.05-1.17c0-.89,0-1.77,0-2.66a.2.2,0,0,0,0-.11v-4a.3.3,0,0,0,0-.18c0-1.06.15-2.1,0-3.16a7.3,7.3,0,0,1,0-.81c0-1.13,0-2.27,0-3.4,0-1.4.08-2.8.07-4.19A1,1,0,0,0,72.3,17.31Z"/><path class="cls-10" d="M70.8,28c0-2-.08-3.93.1-5.94a.36.36,0,0,1,.15.34c0,.91.18,1.81.17,2.72,0,.58,0,1.15,0,1.72,0,.79-.06,1.58-.06,2.37,0,.1,0,.25-.11.25s-.13-.16-.13-.25c0-.4-.05-.81-.07-1.21Z"/><path class="cls-60" d="M70.29,15.44a1.53,1.53,0,0,0-.52-.08c-.72,0-1.43,0-2.15,0-.09,0-.21.07-.27-.07h.06A7.89,7.89,0,0,1,69.08,15c.4-.07.79,0,1.17-.07.16,0,.28.09.26.2S70.55,15.5,70.29,15.44Z"/><path class="cls-59" d="M66.85,47.78a4.65,4.65,0,0,1-1.18.73c-.17.11-.34.29-.58.27A5,5,0,0,1,66.85,47.78Z"/><path class="cls-10" d="M70.53,43.63a.15.15,0,0,1-.14.13c-.07,0-.14,0-.13-.13a.13.13,0,0,1,.15-.11C70.48,43.52,70.53,43.54,70.53,43.63Z"/><path class="cls-49" d="M68.92,46.15a1.23,1.23,0,0,0,.7-.57c.32-.48.71-.92,1-1.4a6.49,6.49,0,0,0,.73-1.25c0-.11.05-.26.23-.23s.09.11.07.19a2.71,2.71,0,0,1-.38.87c-.16-.11-.19.05-.21.13a2.25,2.25,0,0,1-.64.88,1.2,1.2,0,0,0-.29.44,4,4,0,0,1-1,1.16A4.79,4.79,0,0,1,68,47.44c-.51.29-1,.66-1.48,1a4.08,4.08,0,0,1-1.27.63,2.52,2.52,0,0,0-.29.12,8.45,8.45,0,0,1-2.75.75c-2.71.27-5.42.09-8.13.11-2.49,0-5,0-7.48-.07-1.72,0-3.44,0-5.16-.05a6.1,6.1,0,0,1-1.48,0,1.87,1.87,0,0,0-.58,0c-.63,0-1.26,0-1.89,0-.9,0-1.81,0-2.71,0H29c-.49,0-1,.06-1.47,0-.81,0-1.62,0-2.44,0-.63,0-1.27,0-1.91,0-1.4.08-2.81.11-4.21.13l-.4,0c-1.07,0-2.13.06-3.19.08s-2.11.08-3.16,0a12.26,12.26,0,0,1-4.06-.71c-.19-.07-.42,0-.57-.22a1.26,1.26,0,0,1,.54.1c.45.16.92.25,1.37.43a3.87,3.87,0,0,0,.85.15A9.5,9.5,0,0,0,12,50a9.92,9.92,0,0,0,1.89,0c.21-.06.41.05.62.06.46,0,.92-.12,1.37-.09s.88-.05,1.33,0,1.06,0,1.6,0c.88,0,1.76,0,2.64-.11.24,0,.47,0,.71,0,.5,0,1,0,1.49-.05.13,0,.26,0,.4,0,1.42,0,2.84,0,4.26,0,.6,0,1.21.08,1.81.05,1.49-.09,3-.05,4.47-.06h9.92c.86,0,1.72,0,2.58.07a12.86,12.86,0,0,0,1.39,0c1.07,0,2.13,0,3.19.08,3.14.11,6.29,0,9.43,0a10.45,10.45,0,0,0,3.34-.67,11.15,11.15,0,0,0,2.85-1.52,8.69,8.69,0,0,0,1.21-.88A.9.9,0,0,0,68.92,46.15Z"/><path class="cls-14" d="M2.53,45.59c-.11-.09-.24-.16-.24-.35.17.08.25.18.24.34Z"/><path class="cls-58" d="M56.7.2h-45c.12-.11.26-.06.39-.06H55.87A1.68,1.68,0,0,1,56.7.2Z"/><path class="cls-61" d="M10,.64A7.39,7.39,0,0,0,11.14.58h6.23c.36,0,.7.21,1.08.13a9.74,9.74,0,0,1,2,0c.39,0,.78.11,1.18.09-.6,0-1.14.31-1.74.23a19.92,19.92,0,0,0-3.09,0c-1.21,0-2.43.09-3.65.11-.31,0-.61-.09-.93-.08s-.73.16-1.1.2a16.42,16.42,0,0,0-2.48.64,6.36,6.36,0,0,0-1.55.7A7.47,7.47,0,0,0,6,3.25,18.12,18.12,0,0,0,4.18,4.92a17.19,17.19,0,0,0-1.46,2A7.09,7.09,0,0,0,2,8.51a11.87,11.87,0,0,0-.7,3.78c-.11,2.89,0,5.78-.07,8.67-.09,3.1,0,6.2-.06,9.3s0,6,0,9a7.19,7.19,0,0,0,.1.92c0,.12.09.29-.08.31S1,40.37,1,40.25c-.07-.27,0-.58-.24-.81a14.62,14.62,0,0,0-.06-1.62,4.74,4.74,0,0,1,0-.65c0-.4,0-.79-.06-1.18,0-.6.12-1.19,0-1.78-.09-.83,0-1.65,0-2.47,0-2.1,0-4.19,0-6.28-.1-4.39,0-8.77,0-13.16a4.37,4.37,0,0,1,.11-1.19c.14.15.09.33.09.5,0,2.57,0,5.14,0,7.71,0,1.13,0,2.25.1,3.38,0,.27,0,.54,0,.69.07-.67,0-1.46.09-2.24a2.08,2.08,0,0,0,0-.25C1,18.26,1,15.62,1,13a12.52,12.52,0,0,1,.37-3.44A12,12,0,0,1,3,6,12.91,12.91,0,0,1,5.58,3.26,10.64,10.64,0,0,1,9.36,1.31c.41-.12.81-.28,1.23-.37a.39.39,0,0,0-.37-.06,6.61,6.61,0,0,0-1,.22.91.91,0,0,1-.67,0,.08.08,0,0,1,0-.1h.12A1.33,1.33,0,0,1,9.05.83h.12a2.79,2.79,0,0,0,.7-.19Z"/><path class="cls-62" d="M8.55,1.08A6.24,6.24,0,0,0,10.1.79l.56,0c.07,0,.14,0,.16.08s-.05.11-.09.15a.37.37,0,0,1-.22.1,12.38,12.38,0,0,0-2,.61A11.06,11.06,0,0,0,6.19,2.93c-.5.36-.94.81-1.45,1.15-.14.09-.2.23-.32.34A12.28,12.28,0,0,0,2.29,7.35,8.53,8.53,0,0,0,1.68,9c-.12.44-.28.86-.36,1.31a12.62,12.62,0,0,0-.17,1.52c-.12,2.46,0,4.92-.07,7.38,0,.52,0,1,0,1.55,0,1-.07,2.06-.11,3.09l0,0c-.09,0-.09-.09-.09-.15,0-.47,0-.94,0-1.41C.67,18.56.72,14.83.71,11.11h0C.8,10.54.89,10,1,9.41H1c.09-.2.11-.42.18-.62a2.71,2.71,0,0,1,.32-1A10.26,10.26,0,0,1,3,5.29a8.26,8.26,0,0,0,.64-.91c.1-.2.32-.26.46-.42A10.31,10.31,0,0,1,6.36,2.14C6.88,1.8,7.45,1.56,8,1.26A2.9,2.9,0,0,1,8.55,1.08Z"/><path class="cls-61" d="M1,9.41a8.22,8.22,0,0,1-.32,1.7A4.32,4.32,0,0,1,1,9.41Z"/><path class="cls-58" d="M9.87.64a.66.66,0,0,1-.7.19c0-.08,0-.18.11-.17S9.67.58,9.87.64Z"/><path class="cls-8" d="M2.09,6c.07-.22.29-.32.38-.52-.08.21,0,.5-.38.52Z"/><path class="cls-58" d="M8.55,1.08c-.18.08-.35.22-.57.18.14-.21.38-.16.57-.25Z"/><path class="cls-58" d="M9.05.83A.4.4,0,0,1,8.67,1C8.75.85,8.82.68,9.05.83Z"/><path class="cls-61" d="M1.21,8.79A.82.82,0,0,1,1,9.41,1,1,0,0,1,1.21,8.79Z"/><path class="cls-8" d="M2.09,6V6c0,.09.09.19,0,.28s-.1,0-.12,0S2,6,2.09,6Z"/><path class="cls-11" d="M71.68,42.89c0-.07,0-.15-.07-.19a.31.31,0,0,1,.25-.19A1.66,1.66,0,0,1,71.68,42.89Z"/><path class="cls-11" d="M72.49,39.13c0-.21-.06-.43.06-.63C72.53,38.71,72.61,38.93,72.49,39.13Z"/><path class="cls-6" d="M29.73,32.67a.78.78,0,0,1-.25-.43.43.43,0,0,1,.1.09l0,0a.64.64,0,0,0,.08.14A1.09,1.09,0,0,1,29.73,32.67Z"/><path class="cls-24" d="M56.25,1.39h-.06a.22.22,0,0,0-.21-.1,5.27,5.27,0,0,1-1.31.07,9.28,9.28,0,0,1-2,0,.81.81,0,0,0-.22,0h-.85c-4.64,0-9.29,0-13.94.08-3.18,0-6.36,0-9.55.06-1.39,0-2.79,0-4.18.06-.76.06-1.52.07-2.27.08a13,13,0,0,1-2.49,0,4.09,4.09,0,0,0-.77,0H12.81a15.51,15.51,0,0,0-3.65.44c-.3.07-.54.3-.86.25A3,3,0,0,1,9.52,1.9c.61-.13,1.21-.28,1.83-.35l.37,0c.79,0,1.57,0,2.35,0,1.53-.06,3.06,0,4.58-.07.47,0,.94,0,1.4,0,1.68,0,3.37-.1,5.06-.13.33,0,.66,0,1,0,1.14-.1,2.27-.05,3.41-.07.7,0,1.4,0,2.09,0,2,0,4.07,0,6.1-.08s3.93,0,5.89-.05C46.43,1,49.29,1,52.14,1c1.08,0,2.16-.05,3.24,0a1.31,1.31,0,0,0,.28,0C56.07.94,56.11,1,56.25,1.39Z"/><path class="cls-24" d="M8.3,2.33c-.51.45-1.19.6-1.72,1A6.72,6.72,0,0,0,5.8,4,1.16,1.16,0,0,1,5,4.34,7.65,7.65,0,0,1,7,3,7.47,7.47,0,0,0,8,2.4.53.53,0,0,1,8.3,2.33Z"/><path class="cls-24" d="M2,12.36v2.87c0,.11,0,.23-.06.33V12.68C2,12.57,1.93,12.45,2,12.36Z"/><path class="cls-11" d="M72.3,17.31a.47.47,0,0,1,.13.4c0,.68,0,1.34,0,2-.06,1.08,0,2.17,0,3.25,0,.73,0,1.46,0,2.2,0,.42,0,.87,0,1.3,0,.89-.1,1.79-.06,2.68a.53.53,0,0,1-.12.38c0-.73,0-1.46.05-2.19a4.25,4.25,0,0,0,0-1.18,2.33,2.33,0,0,1,0-.87,4.22,4.22,0,0,0,0-.87c0-1.23-.06-2.47,0-3.69,0-.9,0-1.79.1-2.68A2.12,2.12,0,0,0,72.3,17.31Z"/><path class="cls-11" d="M72.24,33.49s.06.09.06.13a23.48,23.48,0,0,1,0,2.65,4.48,4.48,0,0,1-.11,1.16Z"/></svg>